<svg width="16" height="17" viewBox="0 0 16 17" fill="none" xmlns="http://www.w3.org/2000/svg">
<g clip-path="url(#clip0_10831_165)">
<path d="M1.37871 4.15467L7.29537 10.072C7.47041 10.2472 7.7042 10.3511 7.9515 10.3638C8.1988 10.3765 8.442 10.297 8.63404 10.1407L8.71004 10.072L14.6227 4.15867C14.642 4.232 14.6547 4.30667 14.6614 4.38333L14.6667 4.5V12.5C14.6668 12.8364 14.5398 13.1604 14.311 13.407C14.0823 13.6537 13.7688 13.8048 13.4334 13.83L13.3334 13.8333H2.66671C2.33032 13.8334 2.00633 13.7064 1.75968 13.4777C1.51302 13.2489 1.36194 12.9354 1.33671 12.6L1.33337 12.5V4.5C1.33337 4.42 1.34004 4.34267 1.35337 4.26667L1.37871 4.15467ZM13.3334 3.16667C13.414 3.16667 13.4934 3.17333 13.57 3.18733L13.6834 3.21333L8.00337 8.89333L2.32137 3.212C2.39471 3.192 2.47071 3.17867 2.54804 3.172L2.66671 3.16667H13.3334Z" fill="#386378"/>
</g>
<defs>
<clipPath id="clip0_10831_165">
<rect width="16" height="16" fill="white" transform="translate(0 0.5)"/>
</clipPath>
</defs>
</svg>
