<svg width="19" height="18" viewBox="0 0 19 18" fill="none" xmlns="http://www.w3.org/2000/svg">
<path fill-rule="evenodd" clip-rule="evenodd" d="M8.37495 1.5C7.35839 1.50009 6.35659 1.74327 5.45314 2.20927C4.54968 2.67527 3.77077 3.35056 3.18137 4.17882C2.59198 5.00707 2.2092 5.96426 2.06498 6.97053C1.92075 7.97681 2.01926 9.00298 2.35228 9.96344C2.6853 10.9239 3.24318 11.7908 3.97937 12.4918C4.71557 13.1928 5.60872 13.7076 6.58433 13.9932C7.55994 14.2788 8.5897 14.327 9.58771 14.1337C10.5857 13.9404 11.523 13.5112 12.3214 12.882L15.0604 15.621C15.2019 15.7576 15.3913 15.8332 15.588 15.8315C15.7846 15.8298 15.9728 15.7509 16.1118 15.6119C16.2509 15.4728 16.3297 15.2847 16.3315 15.0881C16.3332 14.8914 16.2576 14.702 16.1209 14.5605L13.3819 11.8215C14.1229 10.8815 14.5843 9.7518 14.7133 8.56179C14.8422 7.37179 14.6335 6.16952 14.1111 5.09257C13.5887 4.01562 12.7736 3.10752 11.7592 2.47217C10.7447 1.83683 9.57192 1.49992 8.37495 1.5ZM3.49995 7.875C3.49995 6.58207 4.01356 5.34209 4.9278 4.42785C5.84204 3.51361 7.08202 3 8.37495 3C9.66788 3 10.9079 3.51361 11.8221 4.42785C12.7363 5.34209 13.2499 6.58207 13.2499 7.875C13.2499 9.16793 12.7363 10.4079 11.8221 11.3221C10.9079 12.2364 9.66788 12.75 8.37495 12.75C7.08202 12.75 5.84204 12.2364 4.9278 11.3221C4.01356 10.4079 3.49995 9.16793 3.49995 7.875Z" fill="#386378"/>
</svg>
