<svg width="24" height="24" viewBox="0 0 24 24" fill="none" xmlns="http://www.w3.org/2000/svg">
<path fill-rule="evenodd" clip-rule="evenodd" d="M21.514 0.164191C21.8091 0.0188087 22.1321 -0.0313328 22.4493 0.0189852C22.7666 0.0693032 23.0665 0.218242 23.3179 0.450298C23.5693 0.682355 23.763 0.989046 23.8788 1.33845C23.9946 1.68785 24.0282 2.0672 23.9762 2.437L21.268 21.6664C21.0053 23.5212 19.2667 24.585 17.8135 23.661C16.5979 22.888 14.7924 21.6971 13.1684 20.4545C12.3564 19.8325 9.86912 17.8406 10.1748 16.4233C10.4375 15.2114 14.6169 10.6574 17.0051 7.94988C17.9424 6.88616 17.515 6.27253 16.408 7.25098C13.6592 9.68034 9.2458 13.3747 7.78661 14.4147C6.49937 15.3316 5.82828 15.4882 5.02584 15.3316C3.56187 15.0465 2.20418 14.6048 1.09605 14.0666C-0.401352 13.3398 -0.328512 10.93 1.09486 10.2283L21.514 0.164191Z" fill="white"/>
</svg>
