<svg width="16" height="17" viewBox="0 0 16 17" fill="none" xmlns="http://www.w3.org/2000/svg">
<path fill-rule="evenodd" clip-rule="evenodd" d="M13.1847 3.45333C13.3495 3.38399 13.5298 3.36008 13.7069 3.38408C13.884 3.40808 14.0515 3.47911 14.1918 3.58979C14.3322 3.70047 14.4403 3.84674 14.505 4.01339C14.5696 4.18003 14.5884 4.36096 14.5594 4.53733L13.0474 13.7087C12.9007 14.5933 11.9301 15.1007 11.1187 14.66C10.4401 14.2913 9.43205 13.7233 8.52539 13.1307C8.07205 12.834 6.68339 11.884 6.85405 11.208C7.00072 10.63 9.33405 8.458 10.6674 7.16667C11.1907 6.65933 10.9521 6.36667 10.3341 6.83333C8.79939 7.992 6.33539 9.754 5.52072 10.25C4.80205 10.6873 4.42739 10.762 3.97939 10.6873C3.16205 10.5513 2.40405 10.3407 1.78539 10.084C0.949387 9.73733 0.990054 8.588 1.78472 8.25333L13.1847 3.45333Z" fill="#00A2DE"/>
</svg>
