<svg width="24" height="24" viewBox="0 0 24 24" fill="none" xmlns="http://www.w3.org/2000/svg">
<path fill-rule="evenodd" clip-rule="evenodd" d="M5.33333 9.3251e-07C3.91885 6.85193e-07 2.56229 0.561903 1.5621 1.5621C0.561902 2.56229 -6.85193e-07 3.91885 -9.3251e-07 5.33333L-3.26378e-06 18.6667C-3.5111e-06 20.0812 0.561899 21.4377 1.56209 22.4379C2.56229 23.4381 3.91884 24 5.33333 24L18.6667 24C20.0812 24 21.4377 23.4381 22.4379 22.4379C23.4381 21.4377 24 20.0812 24 18.6667L24 5.33334C24 3.91885 23.4381 2.5623 22.4379 1.5621C21.4377 0.561907 20.0812 3.5111e-06 18.6667 3.26378e-06L5.33333 9.3251e-07ZM19.1093 9.40667C19.3056 9.11246 19.3769 8.75233 19.3077 8.40551C19.2384 8.05869 19.0342 7.7536 18.74 7.55734C18.4458 7.36108 18.0857 7.28973 17.7388 7.35899C17.392 7.42826 17.0869 7.63246 16.8907 7.92667C16.4187 8.55334 15.924 9.15334 15.3453 9.68667C14.6747 10.3053 13.996 10.7693 13.3347 11.044L13.324 8.51067C13.2858 8.18633 13.1299 7.8873 12.8858 7.67029C12.6418 7.45328 12.3266 7.33338 12 7.33334C11.2773 7.37467 10.6667 7.908 10.6667 8.66667L10.6667 14.4973C8.06933 13.7773 6.66666 11.2573 6.66667 8.66667C6.66667 8.31305 6.52619 7.97391 6.27614 7.72386C6.02609 7.47381 5.68695 7.33333 5.33333 7.33333C4.97971 7.33333 4.64057 7.47381 4.39052 7.72386C4.14047 7.97391 4 8.31305 4 8.66667C4 13.5093 7.34666 17.3333 12 17.3333C12.3536 17.3333 12.6928 17.1929 12.9428 16.9428C13.1929 16.6928 13.3333 16.3536 13.3333 16L13.3333 13.916C15.1093 14.0573 16.832 15.312 17.4747 16.596C17.5495 16.7581 17.6562 16.9035 17.7884 17.0236C17.9205 17.1437 18.0754 17.236 18.244 17.2951C18.4125 17.3542 18.5911 17.3788 18.7693 17.3675C18.9475 17.3562 19.1217 17.3093 19.2814 17.2294C19.4411 17.1496 19.5831 17.0384 19.6991 16.9027C19.815 16.7669 19.9025 16.6092 19.9564 16.4389C20.0102 16.2686 20.0293 16.0893 20.0125 15.9115C19.9957 15.7338 19.9434 15.5612 19.8587 15.404C19.2213 14.128 18.032 12.9347 16.568 12.156C16.7653 11.9947 16.9613 11.824 17.1547 11.6467C17.8893 10.9767 18.5451 10.2252 19.1093 9.40667Z" fill="white"/>
</svg>
