<svg width="16" height="17" viewBox="0 0 16 17" fill="none" xmlns="http://www.w3.org/2000/svg">
<g clip-path="url(#clip0_10831_147)">
<path fill-rule="evenodd" clip-rule="evenodd" d="M4.66667 2.5C3.95942 2.5 3.28115 2.78095 2.78105 3.28105C2.28095 3.78115 2 4.45942 2 5.16667V11.8333C2 12.5406 2.28095 13.2189 2.78105 13.719C3.28115 14.219 3.95942 14.5 4.66667 14.5H11.3333C12.0406 14.5 12.7189 14.219 13.219 13.719C13.719 13.2189 14 12.5406 14 11.8333V5.16667C14 4.45942 13.719 3.78115 13.219 3.28105C12.7189 2.78095 12.0406 2.5 11.3333 2.5H4.66667ZM11.5547 7.20333C11.6528 7.05623 11.6885 6.87616 11.6538 6.70275C11.6192 6.52935 11.5171 6.3768 11.37 6.27867C11.2229 6.18054 11.0428 6.14486 10.8694 6.1795C10.696 6.21413 10.5435 6.31623 10.4453 6.46333C10.2093 6.77667 9.962 7.07667 9.67267 7.34333C9.33733 7.65267 8.998 7.88467 8.66733 8.022L8.662 6.75533C8.6429 6.59317 8.56494 6.44365 8.44291 6.33514C8.32089 6.22664 8.16329 6.16669 8 6.16667C7.63867 6.18733 7.33333 6.454 7.33333 6.83333V9.74867C6.03467 9.38867 5.33333 8.12867 5.33333 6.83333C5.33333 6.65652 5.2631 6.48695 5.13807 6.36193C5.01305 6.2369 4.84348 6.16667 4.66667 6.16667C4.48986 6.16667 4.32029 6.2369 4.19526 6.36193C4.07024 6.48695 4 6.65652 4 6.83333C4 9.25467 5.67333 11.1667 8 11.1667C8.17681 11.1667 8.34638 11.0964 8.4714 10.9714C8.59643 10.8464 8.66667 10.6768 8.66667 10.5V9.458C9.55467 9.52867 10.416 10.156 10.7373 10.798C10.7748 10.8791 10.8281 10.9518 10.8942 11.0118C10.9603 11.0718 11.0377 11.118 11.122 11.1475C11.2062 11.1771 11.2956 11.1894 11.3847 11.1838C11.4738 11.1781 11.5608 11.1546 11.6407 11.1147C11.7205 11.0748 11.7916 11.0192 11.8495 10.9513C11.9075 10.8834 11.9513 10.8046 11.9782 10.7194C12.0051 10.6343 12.0147 10.5447 12.0063 10.4558C11.9979 10.3669 11.9717 10.2806 11.9293 10.202C11.6107 9.564 11.016 8.96733 10.284 8.578C10.3827 8.49733 10.4807 8.412 10.5773 8.32333C10.9446 7.98837 11.2725 7.61261 11.5547 7.20333Z" fill="#4C75A3"/>
</g>
<defs>
<clipPath id="clip0_10831_147">
<rect width="16" height="16" fill="white" transform="translate(0 0.5)"/>
</clipPath>
</defs>
</svg>
