<svg width="16" height="17" viewBox="0 0 16 17" fill="none" xmlns="http://www.w3.org/2000/svg">
<path fill-rule="evenodd" clip-rule="evenodd" d="M8.00004 1.83333C4.31804 1.83333 1.33337 4.818 1.33337 8.5C1.33337 9.76 1.68337 10.94 2.29204 11.9453L1.69737 13.9667C1.66323 14.0827 1.66098 14.2058 1.69087 14.3231C1.72076 14.4403 1.78167 14.5473 1.86721 14.6328C1.95275 14.7184 2.05976 14.7793 2.17699 14.8092C2.29421 14.8391 2.41732 14.8368 2.53337 14.8027L4.55471 14.208C5.59382 14.8367 6.78552 15.1683 8.00004 15.1667C11.682 15.1667 14.6667 12.182 14.6667 8.5C14.6667 4.818 11.682 1.83333 8.00004 1.83333ZM6.49204 10.0087C7.84071 11.3567 9.12804 11.5347 9.58271 11.5513C10.274 11.5767 10.9474 11.0487 11.2094 10.436C11.2424 10.3598 11.2545 10.2761 11.2441 10.1936C11.2338 10.1112 11.2015 10.033 11.1507 9.96733C10.7854 9.50067 10.2914 9.16533 9.80871 8.832C9.70793 8.76232 9.58409 8.73437 9.46316 8.75401C9.34222 8.77365 9.23359 8.83935 9.16004 8.93733L8.76004 9.54733C8.73901 9.58013 8.70624 9.60364 8.66844 9.61306C8.63064 9.62248 8.59067 9.61709 8.55671 9.598C8.28537 9.44267 7.89004 9.17867 7.60604 8.89467C7.32204 8.61067 7.07404 8.23333 6.93471 7.97933C6.91743 7.94706 6.91244 7.90963 6.92065 7.87396C6.92886 7.83829 6.94973 7.8068 6.97937 7.78533L7.59537 7.328C7.68328 7.25156 7.74002 7.14547 7.75477 7.02991C7.76952 6.91435 7.74126 6.79741 7.67537 6.70133C7.37671 6.264 7.02871 5.708 6.52404 5.33933C6.45891 5.29214 6.38262 5.26271 6.30266 5.25394C6.22271 5.24517 6.14185 5.25737 6.06804 5.28933C5.45471 5.552 4.92404 6.22533 4.94937 6.918C4.96604 7.37267 5.14404 8.66 6.49204 10.0087Z" fill="#25D366"/>
</svg>
