<svg width="64" height="64" viewBox="0 0 64 64" fill="none" xmlns="http://www.w3.org/2000/svg">
<path d="M36.201 3.15039C41.1661 3.15039 45.7799 5.14008 49.1884 8.75391L49.244 8.82031C49.4891 9.13912 49.4763 9.58845 49.2128 9.89258L49.1522 9.95605C48.8325 10.2577 48.3392 10.262 48.0135 9.98047L47.951 9.9209C44.8664 6.65081 40.694 4.84961 36.201 4.84961C27.2964 4.84966 20.0517 12.0949 20.0516 21C20.0516 29.9051 27.2963 37.1503 36.201 37.1504C45.1058 37.1504 52.3514 29.9052 52.3514 21C52.3514 19.0639 52.0135 17.1759 51.3475 15.3809L51.2098 15.0234C51.036 14.5874 51.2484 14.0928 51.6844 13.9189L51.7665 13.8906C52.1789 13.7735 52.6258 13.9843 52.788 14.3936L52.9403 14.7891C53.6774 16.7742 54.0516 18.8613 54.0516 21C54.0516 24.1616 53.2132 27.1262 51.7655 29.7041L59.4315 37.3691C61.2638 39.2016 61.3203 42.1478 59.6024 44.0498L59.4315 44.2305C58.4852 45.1763 57.242 45.6494 55.9999 45.6494C54.8354 45.6494 53.6707 45.2337 52.7499 44.4023L52.5692 44.2305L44.9032 36.5654C42.3257 38.0126 39.3617 38.8496 36.201 38.8496C26.3587 38.8496 18.3514 30.8428 18.3514 21C18.3514 11.1572 26.3587 3.15039 36.201 3.15039ZM50.8436 31.1855C49.6323 32.9217 48.1219 34.4323 46.3856 35.6436L53.7714 43.0293L53.8885 43.1406C55.124 44.2562 57.0393 44.2193 58.2294 43.0293L58.3407 42.9111C59.4203 41.7152 59.4205 39.8844 58.3407 38.6885L58.2294 38.5713L50.8436 31.1855Z" fill="#00A2DE" stroke="#00A2DE" stroke-width="0.2"/>
<path d="M49.8643 10.7015C50.2431 10.4954 50.7239 10.6092 50.9707 10.972L51.3008 11.476C51.4082 11.6459 51.5126 11.818 51.6143 11.9916L51.6553 12.0687C51.8231 12.4346 51.7095 12.87 51.3848 13.1078L51.3125 13.1556C51.1776 13.2347 51.0289 13.2718 50.8828 13.2719C50.6275 13.2719 50.3782 13.1579 50.2139 12.9486L50.1494 12.8529C49.964 12.5378 49.7683 12.228 49.5645 11.9271V11.9281C49.2999 11.5395 49.4019 11.0103 49.79 10.7465L49.8643 10.7015Z" fill="#00A2DE" stroke="#00A2DE" stroke-width="0.2"/>
<path d="M36.2012 7.15039C43.8384 7.15039 50.0508 13.3633 50.0508 21C50.0508 28.6367 43.8384 34.8496 36.2012 34.8496C28.5639 34.8496 22.3516 28.6367 22.3516 21C22.3516 13.3633 28.5639 7.15039 36.2012 7.15039ZM36.2012 8.84961C29.5015 8.84961 24.0508 14.3003 24.0508 21C24.0508 27.6997 29.5015 33.1504 36.2012 33.1504C42.9008 33.1504 48.3516 27.6997 48.3516 21C48.3516 14.3003 42.9008 8.84961 36.2012 8.84961Z" fill="#00A2DE" stroke="#00A2DE" stroke-width="0.2"/>
<path d="M42 39.2905C42.4693 39.2905 42.8496 39.6708 42.8496 40.1401V53.0005C42.8494 54.0203 42.0199 54.8501 41 54.8501H37C35.9801 54.8501 35.1506 54.0203 35.1504 53.0005V40.9907C35.1504 40.5214 35.5307 40.1401 36 40.1401C36.4693 40.1401 36.8496 40.5214 36.8496 40.9907V53.0005C36.8499 53.0808 36.9197 53.1499 37 53.1499H41C41.0803 53.1499 41.1501 53.0808 41.1504 53.0005V40.1401C41.1504 39.6708 41.5307 39.2905 42 39.2905Z" fill="#363B49" stroke="#363B49" stroke-width="0.2"/>
<path d="M15 33.1504C16.02 33.1504 16.8496 33.98 16.8496 35V54C16.8496 54.4693 16.4693 54.8496 16 54.8496H11C9.97997 54.8496 9.15039 54.02 9.15039 53V35C9.15039 33.98 9.97997 33.1504 11 33.1504H15ZM11 34.8496C10.9175 34.8496 10.8496 34.9175 10.8496 35V53C10.8496 53.0825 10.9175 53.1504 11 53.1504H15.1504V35C15.1504 34.9175 15.0825 34.8496 15 34.8496H11Z" fill="#363B49" stroke="#363B49" stroke-width="0.2"/>
<path d="M23 35.1704C23.4693 35.1704 23.8496 35.5507 23.8496 36.02V45.5005C23.8494 45.9696 23.4692 46.3501 23 46.3501C22.5308 46.3501 22.1506 45.9696 22.1504 45.5005V36.02C22.1504 35.5507 22.5307 35.1704 23 35.1704Z" fill="#363B49" stroke="#363B49" stroke-width="0.2"/>
<path d="M29 38.8105C29.4693 38.8105 29.8496 39.1908 29.8496 39.6602V53C29.8496 54.02 29.02 54.8496 28 54.8496H24C22.98 54.8496 22.1504 54.02 22.1504 53V49.25C22.1504 48.7807 22.5307 48.4004 23 48.4004C23.4693 48.4004 23.8496 48.7807 23.8496 49.25V53C23.8496 53.0805 23.9195 53.1504 24 53.1504H28C28.0805 53.1504 28.1504 53.0805 28.1504 53V39.6602C28.1504 39.1908 28.5307 38.8105 29 38.8105Z" fill="#363B49" stroke="#363B49" stroke-width="0.2"/>
<path d="M4 17.1504C4.46933 17.1504 4.84961 17.5307 4.84961 18V59.1504H50C50.4693 59.1504 50.8496 59.5307 50.8496 60C50.8496 60.4693 50.4693 60.8496 50 60.8496H4C3.53067 60.8496 3.15039 60.4693 3.15039 60V18C3.15039 17.5307 3.53067 17.1504 4 17.1504Z" fill="#363B49" stroke="#363B49" stroke-width="0.2"/>
</svg>
