<svg width="64" height="64" viewBox="0 0 64 64" fill="none" xmlns="http://www.w3.org/2000/svg">
<path d="M32.0004 61C31.5434 61 31.0868 60.9121 30.661 60.7373C5.44865 50.4131 5.54295 24.8662 5.58835 12.5889C5.59515 10.7334 7.05955 9.17681 8.92235 9.04591C15.5707 8.57421 24.2358 6.28221 30.4838 3.34181C31.4467 2.88671 32.5526 2.88671 33.5165 3.34181C39.7641 6.28221 48.4291 8.57421 55.078 9.04591C56.9403 9.17681 58.4047 10.7334 58.4115 12.5889C58.4213 15.2403 58.4149 18.3448 58.2128 21.6397C58.1791 22.1915 57.6982 22.6094 57.1537 22.5762C56.6024 22.542 56.183 22.0684 56.2167 21.5166C56.4149 18.2822 56.4213 15.2168 56.4115 12.5967C56.4086 11.7686 55.7748 11.0996 54.9369 11.0401C47.9574 10.546 39.2152 8.23441 32.6644 5.15051C32.2357 4.94931 31.7635 4.94931 31.3358 5.15051C24.7845 8.23451 16.0423 10.546 9.06335 11.0401C8.22495 11.0997 7.59115 11.7686 7.58825 12.5967C7.54135 25.3447 7.45395 49.0723 31.4197 58.8867C31.7888 59.039 32.2107 59.0381 32.5789 58.8877C45.156 53.7373 52.5618 44.2647 55.2195 29.9258C55.3201 29.3828 55.843 29.0196 56.385 29.125C56.928 29.2256 57.2869 29.748 57.1863 30.291C54.4329 45.1416 46.4094 55.3857 33.3377 60.7383C32.9129 60.9121 32.4565 61 32.0004 61Z" fill="#363B49"/>
<path d="M56.752 27.585C56.71 27.585 56.6675 27.5821 56.6246 27.5772C56.0767 27.5079 55.6891 27.0069 55.7584 26.459C55.8209 25.9658 55.8785 25.4746 55.9298 24.9873C55.9884 24.4394 56.4757 24.0391 57.0294 24.0986C57.5787 24.1562 57.9772 24.6484 57.919 25.1982C57.8658 25.6992 57.8067 26.2041 57.7427 26.7109C57.6782 27.2158 57.2481 27.585 56.752 27.585Z" fill="#363B49"/>
<path d="M54.416 13.9199C54.415 13.4062 54.0249 12.9765 53.5137 12.9267C46.7525 12.2626 38.668 10.0829 32.4141 7.23819C32.1514 7.11909 31.8487 7.11909 31.586 7.23819C28.4503 8.66399 24.7925 9.95109 21.0089 10.9599C20.4752 11.1015 20.1578 11.6494 20.2999 12.1835C20.442 12.7167 20.9903 13.036 21.5235 12.8915C25.2481 11.8993 28.8594 10.6415 32.0001 9.24499C38.1012 11.9598 45.795 14.0575 52.4171 14.8212C52.4176 25.4823 51.8932 46.0331 32.0001 54.789C12.1089 46.0342 11.583 25.4834 11.5835 14.8213C13.0723 14.6494 14.6367 14.4082 16.2476 14.1006C16.7901 13.9971 17.146 13.4727 17.0425 12.9307C16.9385 12.3877 16.4185 12.0371 15.8726 12.1358C13.9927 12.4952 12.1807 12.7608 10.4869 12.9268C9.97567 12.9766 9.58547 13.4063 9.58457 13.92C9.56797 24.7794 9.53377 47.3751 31.6075 56.7989C31.733 56.8526 31.8663 56.879 32.0001 56.879C32.1339 56.879 32.2672 56.8526 32.3927 56.7989C54.4669 47.3741 54.4326 24.7793 54.416 13.9199Z" fill="#00A2DE"/>
<path d="M31.9999 11.5098C31.4477 11.5098 30.9999 11.9571 30.9999 12.5098V29H15.9398C15.3876 29 14.9398 29.4473 14.9398 30C14.9398 30.5527 15.3876 31 15.9398 31H30.9999V51.4902C30.9999 52.0429 31.4477 52.4902 31.9999 52.4902C32.5521 52.4902 32.9999 52.0429 32.9999 51.4902V31H48.06C48.6122 31 49.06 30.5527 49.06 30C49.06 29.4473 48.6122 29 48.06 29H32.9999V12.5098C32.9999 11.9571 32.5521 11.5098 31.9999 11.5098Z" fill="#00A2DE"/>
</svg>
