<svg width="64" height="64" viewBox="0 0 64 64" fill="none" xmlns="http://www.w3.org/2000/svg">
<g clip-path="url(#clip0_10831_356)">
<g clip-path="url(#clip1_10831_356)">
<path d="M44.6347 25.3761H19.3652C18.806 25.3761 18.3525 25.8295 18.3525 26.3888C18.3525 26.9481 18.806 27.4015 19.3652 27.4015H44.6349C45.1941 27.4015 45.6476 26.9481 45.6476 26.3888C45.6476 25.8295 45.194 25.3761 44.6347 25.3761Z" fill="#363B49"/>
<path d="M8.80833 29.967H5.06568C4.5064 29.967 4.05298 30.4205 4.05298 30.9797C4.05298 31.539 4.5064 31.9924 5.06568 31.9924H8.80833C10.6578 31.9924 12.2173 33.2579 12.6667 34.9684H5.32506C4.76578 34.9684 4.31236 35.4218 4.31236 35.9811C4.31236 36.5404 4.76578 36.9938 5.32506 36.9938H13.8094C14.3687 36.9938 14.8221 36.5404 14.8221 35.9811C14.8223 32.6649 12.1244 29.967 8.80833 29.967Z" fill="#00A2DE"/>
<path d="M55.1916 31.9924H58.9343C59.4935 31.9924 59.947 31.539 59.947 30.9797C59.947 30.4205 59.4935 29.967 58.9343 29.967H55.1916C51.8755 29.967 49.1777 32.6649 49.1777 35.9811C49.1777 36.5404 49.6311 36.9938 50.1904 36.9938H58.6747C59.234 36.9938 59.6874 36.5404 59.6874 35.9811C59.6874 35.4218 59.234 34.9684 58.6747 34.9684H51.3332C51.7826 33.2579 53.3422 31.9924 55.1916 31.9924Z" fill="#00A2DE"/>
<path d="M61.9333 25.5161C60.5138 24.0326 58.5862 23.2155 56.5053 23.2155C56.4141 23.2155 56.3234 23.2278 56.2356 23.2521L52.9811 24.1513L48.1867 14.9406C47.3283 13.2917 45.1998 12 43.341 12H20.6588C18.7999 12 16.6714 13.2917 15.8131 14.9406L11.0187 24.1513L7.76417 23.2521C7.67641 23.2278 7.58567 23.2155 7.49453 23.2155C5.41364 23.2155 3.48587 24.0326 2.06647 25.5161C0.647076 26.9997 -0.0842262 28.9616 0.00772666 31.0465L0.742674 45.6994C0.76968 46.2383 1.21459 46.6615 1.75416 46.6615H2.09172V51.0836C2.09172 51.6429 2.54514 52.0963 3.10442 52.0963H13.7595C14.3188 52.0963 14.7722 51.6429 14.7722 51.0836V49.6996C14.7722 49.1403 14.3188 48.6869 13.7595 48.6869C13.2002 48.6869 12.7468 49.1403 12.7468 49.6996V50.0709H4.11698V46.6615H59.8828V50.0709H51.2532V49.6996C51.2532 49.1403 50.7997 48.6869 50.2405 48.6869C49.6812 48.6869 49.2278 49.1403 49.2278 49.6996V51.0836C49.2278 51.6429 49.6812 52.0963 50.2405 52.0963H60.8955C61.4548 52.0963 61.9082 51.6429 61.9082 51.0836V46.6615H62.2458C62.7853 46.6615 63.2302 46.2385 63.2573 45.6994L63.9923 31.0406C64.0842 28.9616 63.3529 26.9997 61.9333 25.5161ZM61.9692 30.9451L61.2826 44.636H2.7173L2.03096 30.9512C1.96385 29.4297 2.49612 27.9968 3.53002 26.9165C4.53381 25.8673 5.89055 25.2759 7.36274 25.2427L11.2588 26.3191C11.2612 26.3198 11.2636 26.3205 11.2662 26.3211L15.0448 27.365C15.5837 27.514 16.1416 27.1977 16.2905 26.6586C16.4395 26.1196 16.1232 25.5618 15.5841 25.4128L13.0151 24.7031L17.6097 15.8761C18.1228 14.8904 19.5476 14.0257 20.6589 14.0257H43.3412C44.4523 14.0257 45.8772 14.8904 46.3903 15.8761L50.985 24.7031L48.416 25.4128C47.8768 25.5618 47.5606 26.1196 47.7095 26.6586C47.8585 27.1977 48.4162 27.5138 48.9553 27.365L56.6373 25.2427C58.1095 25.276 59.4663 25.8675 60.47 26.9165C61.5038 27.9968 62.0361 29.4297 61.9692 30.9451Z" fill="#363B49"/>
<path d="M56.5053 21.1903H60.0332C60.5925 21.1903 61.0459 20.7369 61.0459 20.1776C61.0459 19.6183 60.5925 19.1649 60.0332 19.1649H56.5053C55.946 19.1649 55.4926 19.6183 55.4926 20.1776C55.4926 20.7369 55.946 21.1903 56.5053 21.1903Z" fill="#363B49"/>
<path d="M3.96655 21.1903H7.49452C8.0538 21.1903 8.50722 20.7369 8.50722 20.1776C8.50722 19.6183 8.0538 19.1649 7.49452 19.1649H3.96655C3.40728 19.1649 2.95386 19.6183 2.95386 20.1776C2.95386 20.7369 3.40728 21.1903 3.96655 21.1903Z" fill="#363B49"/>
<path d="M43.2322 37.8785H20.7678C20.2085 37.8785 19.7551 38.332 19.7551 38.8912V41.5978C19.7551 42.1571 20.2085 42.6105 20.7678 42.6105C21.327 42.6105 21.7805 42.1571 21.7805 41.5978V39.9039H42.2195V41.5978C42.2195 42.1571 42.6729 42.6105 43.2322 42.6105C43.7915 42.6105 44.2449 42.1571 44.2449 41.5978V38.8912C44.2449 38.332 43.7915 37.8785 43.2322 37.8785Z" fill="#363B49"/>
<path d="M37.616 32.8025C38.1753 32.8025 38.6287 32.3491 38.6287 31.7898C38.6287 31.2305 38.1753 30.7771 37.616 30.7771H26.3837C25.8245 30.7771 25.371 31.2305 25.371 31.7898C25.371 32.3491 25.8245 32.8025 26.3837 32.8025H37.616Z" fill="#363B49"/>
</g>
</g>
<defs>
<clipPath id="clip0_10831_356">
<rect width="64" height="64" fill="white"/>
</clipPath>
<clipPath id="clip1_10831_356">
<rect width="64" height="64" fill="white"/>
</clipPath>
</defs>
</svg>
