<svg width="64" height="64" viewBox="0 0 64 64" fill="none" xmlns="http://www.w3.org/2000/svg">
<path d="M53.9996 3.15039C55.5715 3.15039 56.8502 4.42817 56.8502 6V9.15039H57.9996C59.5715 9.15039 60.8502 10.4282 60.8502 12V59C60.8502 60.0199 60.0204 60.8503 59.0006 60.8506H37.3199C36.8508 60.8503 36.4703 60.4692 36.4703 60C36.4704 59.5309 36.8509 59.1507 37.3199 59.1504H40.15V46.8506H37.9196C37.4504 46.8503 37.0699 46.4692 37.0699 46C37.07 45.5309 37.4505 45.1506 37.9196 45.1504H52.0006C52.4697 45.1507 52.8502 45.5309 52.8502 46V59.1504H59.0006C59.0809 59.1501 59.15 59.0803 59.15 59V12C59.15 11.3659 58.6346 10.8508 58.0006 10.8506H24.0006C23.8163 10.8506 23.6458 10.8912 23.4918 10.9727L23.3434 11.0674C23.1957 11.1797 23.0159 11.2401 22.8307 11.2402C22.3624 11.2402 21.9755 10.8607 21.9752 10.3906C21.9752 10.1115 22.1076 9.86309 22.3141 9.70801L22.4069 9.64746C22.8736 9.32187 23.4223 9.15047 23.9996 9.15039H25.15V6C25.15 4.4283 26.428 3.1506 27.9996 3.15039H53.9996ZM41.8502 59.1504H51.15V46.8496H41.8502V59.1504ZM27.9996 4.84961C27.3655 4.84982 26.8502 5.36586 26.8502 6V9.15039H55.15V6C55.15 5.36573 54.6339 4.84961 53.9996 4.84961H27.9996Z" fill="#363B49" stroke="#363B49" stroke-width="0.2"/>
<path d="M48.25 39C48.25 39.9648 49.0352 40.75 50 40.75H53C53.9648 40.75 54.75 39.9648 54.75 39V36C54.75 35.0352 53.9648 34.25 53 34.25H50C49.0352 34.25 48.25 35.0352 48.25 36V39ZM49.75 36C49.75 35.8623 49.8623 35.75 50 35.75H53C53.1377 35.75 53.25 35.8623 53.25 36V39C53.25 39.1377 53.1377 39.25 53 39.25H50C49.8623 39.25 49.75 39.1377 49.75 39V36Z" fill="#363B49"/>
<path d="M48.25 30C48.25 30.9648 49.0352 31.75 50 31.75H53C53.9648 31.75 54.75 30.9648 54.75 30V27C54.75 26.0352 53.9648 25.25 53 25.25H50C49.0352 25.25 48.25 26.0352 48.25 27V30ZM49.75 27C49.75 26.8623 49.8623 26.75 50 26.75H53C53.1377 26.75 53.25 26.8623 53.25 27V30C53.25 30.1377 53.1377 30.25 53 30.25H50C49.8623 30.25 49.75 30.1377 49.75 30V27Z" fill="#363B49"/>
<path d="M50 22.75H53C53.9648 22.75 54.75 21.9648 54.75 21V18C54.75 17.0352 53.9648 16.25 53 16.25H50C49.0352 16.25 48.25 17.0352 48.25 18V21C48.25 21.9648 49.0352 22.75 50 22.75ZM49.75 18C49.75 17.8623 49.8623 17.75 50 17.75H53C53.1377 17.75 53.25 17.8623 53.25 18V21C53.25 21.1377 53.1377 21.25 53 21.25H50C49.8623 21.25 49.75 21.1377 49.75 21V18Z" fill="#363B49"/>
<path d="M37.75 39C37.75 39.9648 38.5352 40.75 39.5 40.75H42.5C43.4648 40.75 44.25 39.9648 44.25 39V36C44.25 35.0352 43.4648 34.25 42.5 34.25H39.5C38.5352 34.25 37.75 35.0352 37.75 36V39ZM39.25 36C39.25 35.8623 39.3623 35.75 39.5 35.75H42.5C42.6377 35.75 42.75 35.8623 42.75 36V39C42.75 39.1377 42.6377 39.25 42.5 39.25H39.5C39.3623 39.25 39.25 39.1377 39.25 39V36Z" fill="#363B49"/>
<path d="M37.75 30C37.75 30.9648 38.5352 31.75 39.5 31.75H42.5C43.4648 31.75 44.25 30.9648 44.25 30V27C44.25 26.0352 43.4648 25.25 42.5 25.25H39.5C38.5352 25.25 37.75 26.0352 37.75 27V30ZM39.25 27C39.25 26.8623 39.3623 26.75 39.5 26.75H42.5C42.6377 26.75 42.75 26.8623 42.75 27V30C42.75 30.1377 42.6377 30.25 42.5 30.25H39.5C39.3623 30.25 39.25 30.1377 39.25 30V27Z" fill="#363B49"/>
<path d="M39.5 22.75H42.5C43.4648 22.75 44.25 21.9648 44.25 21V18C44.25 17.0352 43.4648 16.25 42.5 16.25H39.5C38.5352 16.25 37.75 17.0352 37.75 18V21C37.75 21.9648 38.5352 22.75 39.5 22.75ZM39.25 18C39.25 17.8623 39.3623 17.75 39.5 17.75H42.5C42.6377 17.75 42.75 17.8623 42.75 18V21C42.75 21.1377 42.6377 21.25 42.5 21.25H39.5C39.3623 21.25 39.25 21.1377 39.25 21V18Z" fill="#363B49"/>
<path d="M19 13.1504C27.7398 13.1504 34.8496 20.2602 34.8496 29C34.8496 35.1881 31.2765 40.5423 26.0938 43.1504H31C33.1226 43.1504 34.8496 44.8769 34.8496 47V49C34.8496 50.2185 34.2725 51.2953 33.3877 52C34.2726 52.7047 34.8496 53.7815 34.8496 55V57C34.8496 59.1231 33.1226 60.8496 31 60.8496H7C4.87687 60.8496 3.15039 59.1231 3.15039 57V55C3.15039 53.782 3.72613 52.7047 4.61035 52C3.72613 51.2953 3.15039 50.218 3.15039 49V47C3.15039 44.8769 4.87687 43.1504 7 43.1504H11.9062C6.72348 40.5423 3.15039 35.1881 3.15039 29C3.15039 20.2602 10.2602 13.1504 19 13.1504ZM7 52.8496C5.81453 52.8496 4.84961 53.8145 4.84961 55V57C4.84961 58.1855 5.81453 59.1504 7 59.1504H31C32.1855 59.1504 33.1504 58.1855 33.1504 57V55C33.1504 53.8145 32.1855 52.8496 31 52.8496H7ZM7 44.8496C5.81453 44.8496 4.84961 45.8145 4.84961 47V49C4.84961 50.1855 5.81453 51.1504 7 51.1504H31C32.1855 51.1504 33.1504 50.1855 33.1504 49V47C33.1504 45.8145 32.1855 44.8496 31 44.8496H7ZM9.12793 39.1221C11.6797 41.6115 15.1625 43.1504 19 43.1504C26.5151 43.1504 32.6625 37.2557 33.1055 29.8496H19.3291L9.12793 39.1221ZM18.1504 14.8936C10.7442 15.3364 4.84961 21.4849 4.84961 29C4.84961 32.3544 6.02646 35.4372 7.98438 37.8652L18.1504 28.623V14.8936ZM19.8496 28.1504H33.1055C32.6794 21.0273 26.9727 15.3196 19.8496 14.8936V28.1504Z" fill="#00A2DE" stroke="#00A2DE" stroke-width="0.2"/>
</svg>
