<svg width="64" height="64" viewBox="0 0 64 64" fill="none" xmlns="http://www.w3.org/2000/svg">
<path d="M48.4276 16.2203L48.4266 16.2213C48.8649 16.2342 49.2158 16.577 49.2479 17.0054L49.2509 17.0923C49.2003 19.0361 48.7688 20.8944 47.9696 22.6255L53.5106 28.1588H53.5116L53.578 28.2339C53.7235 28.4188 53.7866 28.6569 53.7499 28.8922V28.8931L53.4716 30.648L55.2274 30.3707H55.2284L55.329 30.3609C55.5647 30.3528 55.7939 30.4411 55.9618 30.6089H55.9608C56.1294 30.7771 56.2184 31.0069 56.2098 31.2418L56.2001 31.3423L55.9218 33.0982L57.6766 32.8209L57.7782 32.8111C58.0135 32.8023 58.2418 32.8915 58.41 33.0591H58.411L60.4325 35.0806L60.5565 35.2242C60.8271 35.5666 60.9706 35.9707 60.9706 36.3902L60.9501 40.6539V40.6548C60.9326 41.6812 60.0986 42.5093 59.0897 42.5093L59.0907 42.5103L54.826 42.5289L54.827 42.5298C54.8087 42.5303 54.7886 42.5308 54.7684 42.5308C54.3722 42.5308 53.9677 42.3813 53.6425 42.1129L53.5087 41.9908L41.0565 29.5377C39.6091 30.2023 38.0819 30.6125 36.5067 30.7564L36.5057 30.7574C36.0555 30.7903 35.6766 30.495 35.5956 30.0728L35.5829 29.9869C35.5409 29.52 35.8852 29.1057 36.3524 29.063L36.9354 28.9957C38.2911 28.806 39.6023 28.3897 40.8417 27.7535H40.8427L40.9686 27.7007C41.2694 27.604 41.6048 27.6802 41.8319 27.9088L54.7108 40.7886L54.7499 40.8179C54.7601 40.8227 54.7747 40.8263 54.7997 40.8297L59.0858 40.8101L59.1473 40.7974C59.2046 40.772 59.2482 40.7116 59.2499 40.6353L59.2704 36.3873L59.2645 36.3511C59.2547 36.3168 59.2337 36.286 59.2147 36.2662L57.5155 34.567L55.0331 34.9586L55.0341 34.9595C54.7998 34.9979 54.5599 34.9341 54.3749 34.7886L54.2997 34.7213C54.1071 34.5291 54.0185 34.2565 54.0604 33.9879V33.9869L54.3378 32.231L52.5829 32.5084L52.5839 32.5093C52.3499 32.5493 52.1096 32.484 51.9247 32.3384L51.8495 32.2711C51.6569 32.0789 51.5683 31.8063 51.6102 31.5377V31.5367L52.0018 29.0543L46.3397 23.4019V23.4009C46.0788 23.1393 46.015 22.7391 46.1854 22.4097L46.3417 22.0972C47.098 20.5249 47.5053 18.828 47.5507 17.0474L47.5565 16.9625C47.6097 16.5418 47.9697 16.2204 48.4003 16.2203C48.4056 16.2203 48.4166 16.2195 48.4276 16.2203Z" fill="#00A2DE" stroke="#00A2DE" stroke-width="0.2"/>
<path d="M35.4746 2.99658C39.1659 2.99659 42.6287 4.4266 45.2305 7.02881L45.5371 7.34521C47.0439 8.95266 48.1505 10.9158 48.749 13.0503L48.7676 13.1353C48.8362 13.5312 48.6161 13.9237 48.2412 14.0708L48.1592 14.0981C47.7344 14.2186 47.2967 13.9919 47.1387 13.5923L47.1104 13.5093C46.5863 11.6377 45.6164 9.91667 44.2969 8.5083L44.0283 8.23096C41.7474 5.9502 38.7117 4.69682 35.4736 4.69678H35.4121C32.3528 4.71183 29.4586 5.84348 27.1953 7.89795L26.751 8.32178C24.4135 10.6546 23.126 13.749 23.126 17.0366L23.1406 17.6421C23.2862 20.6533 24.523 23.4557 26.6602 25.5884L26.9004 25.8218C27.4673 26.3572 28.0845 26.833 28.7383 27.2378L28.8096 27.2866C29.128 27.5319 29.2306 27.9701 29.0547 28.3315L29.0127 28.4077C28.8512 28.6671 28.5733 28.81 28.2891 28.8101C28.1746 28.8101 28.0588 28.7867 27.9492 28.7388L27.8418 28.6831C27.0908 28.2175 26.3836 27.6714 25.7334 27.0581L25.459 26.7915C22.8582 24.1955 21.4259 20.7309 21.4268 17.0366L21.4307 16.686C21.5191 13.0748 22.9746 9.68873 25.5508 7.11865L25.8008 6.87451C28.4092 4.38866 31.8057 3.01436 35.4043 2.99658H35.4746Z" fill="#00A2DE" stroke="#00A2DE" stroke-width="0.2"/>
<path d="M4 53.7529C4.4141 53.7529 4.75 53.417 4.75 53.0029V52.0737C4.75 51.6596 4.4141 51.3237 4 51.3237C3.5859 51.3237 3.25 51.6596 3.25 52.0737V53.0029C3.25 53.417 3.5859 53.7529 4 53.7529Z" fill="#363B49"/>
<path d="M19.6661 9.04694C20.0868 8.95709 20.5177 9.2033 20.6505 9.62311L20.672 9.70807C20.7538 10.1017 20.5467 10.5002 20.1779 10.6592L20.0968 10.6895C16.7795 11.7388 13.9255 14.2494 12.2189 17.6085L12.0568 17.9356C9.7068 22.8797 10.3672 28.5882 13.5909 32.1046L16.3439 30.1387L16.5333 30.0147C17.4346 29.4727 18.5642 29.473 19.4669 30.0147L19.6564 30.1387L25.4406 34.2696C27.776 33.2164 29.849 31.4138 31.3029 29.1329V29.1319L31.546 28.7422C31.7822 28.3484 31.9974 27.9439 32.1915 27.5352H32.1925L32.3839 27.1163C34.2852 22.7997 33.9631 17.9912 31.587 14.5323C31.2032 14.7136 30.7908 14.8174 30.3722 14.8174C29.7349 14.8174 29.0979 14.6059 28.5782 14.1827L28.3624 13.9883C27.252 12.8761 27.2585 11.0615 28.3771 9.94342L28.588 9.75201C29.0977 9.33257 29.7312 9.1023 30.3976 9.09869H30.4122C31.1729 9.09872 31.8856 9.39441 32.421 9.93073L32.6124 10.1407C32.9707 10.5771 33.1879 11.1054 33.2404 11.669L33.2521 11.9532C33.2493 12.4647 33.1047 12.9508 32.8527 13.3809C35.7737 17.4691 36.132 23.23 33.7267 28.2667C33.4378 28.8753 33.1039 29.4762 32.7345 30.0499L32.7335 30.0489C31.2876 32.3172 29.2882 34.1716 27.0118 35.3926L31.6564 38.71L31.7921 38.8135C32.4577 39.3517 32.8497 40.1676 32.8497 41.0294V58.0001C32.8496 59.5713 31.5719 60.8497 30.0001 60.8497H6.00012C4.42834 60.8497 3.1506 59.5713 3.15051 58.0001V55.3731C3.15067 54.9039 3.53089 54.5235 4.00012 54.5235C4.46936 54.5235 4.84958 54.9039 4.84973 55.3731V58.0001C4.84982 58.6343 5.36591 59.1495 6.00012 59.1495H12.1505V48.0001C12.1505 47.5307 12.5308 47.1495 13.0001 47.1495H23.0001C23.4695 47.1495 23.8497 47.5307 23.8497 48.0001V59.1495H30.0001C30.6343 59.1495 31.1504 58.6343 31.1505 58.0001V41.0294C31.1505 40.7051 31.012 40.3969 30.7755 40.1807L30.6691 40.0938L25.2111 36.1944C23.7716 36.721 22.3035 37.001 20.8527 37.001C19.941 37.001 19.0375 36.8969 18.1534 36.6866L17.7755 36.5899C17.3229 36.4659 17.0558 35.9977 17.1798 35.545L17.2072 35.463C17.3625 35.0618 17.7969 34.8321 18.2247 34.9503L18.5548 35.0342C20.1449 35.41 21.818 35.3785 23.4786 34.9581L18.6691 31.5225C18.3183 31.2724 17.8636 31.2414 17.4884 31.4288L17.3331 31.5225L5.33215 40.0938C5.03047 40.3089 4.85071 40.6588 4.85071 41.0294V49.8409C4.8506 50.3101 4.46939 50.6905 4.00012 50.6905C3.5309 50.6904 3.15062 50.3101 3.15051 49.8409V41.0294C3.15051 40.1104 3.5968 39.2434 4.34485 38.71L12.1964 33.1006C8.62553 29.0612 7.91658 22.6886 10.5226 17.2051L10.7032 16.838C12.6142 13.0775 15.829 10.2569 19.5831 9.0694L19.6661 9.04694ZM13.8497 59.1505H22.1495V48.8497H13.8497V59.1505ZM30.2911 10.8057C30.0614 10.8295 29.8453 10.9197 29.6661 11.0674L29.5792 11.1456C29.1223 11.6025 29.1185 12.3394 29.5646 12.7872L29.6525 12.8653C30.1044 13.2314 30.7777 13.2007 31.2052 12.7725H31.2062L31.2843 12.6856C31.4567 12.4764 31.5512 12.2179 31.5529 11.9454L31.548 11.8301C31.527 11.6032 31.4397 11.391 31.296 11.2159L31.2198 11.1319C31.0054 10.9174 30.719 10.7989 30.4122 10.7989H30.4073L30.2911 10.8057Z" fill="#363B49" stroke="#363B49" stroke-width="0.2"/>
</svg>
