<svg width="64" height="64" viewBox="0 0 64 64" fill="none" xmlns="http://www.w3.org/2000/svg">
<path d="M38 3.2002C38.1819 3.2002 38.3579 3.26256 38.5 3.37598L48.5 11.376L48.5674 11.4355C48.7156 11.5844 48.7998 11.7872 48.7998 12V21C48.7998 21.4417 48.4417 21.7998 48 21.7998C47.5583 21.7998 47.2002 21.4417 47.2002 21V12.7998H39C38.0076 12.7998 37.2002 11.9924 37.2002 11V4.7998H14C12.2356 4.7998 10.7998 6.23561 10.7998 8V25.8398C10.7998 26.2815 10.4417 26.6396 10 26.6396C9.5583 26.6396 9.20022 26.2815 9.2002 25.8398V10.7998H8C6.23561 10.7998 4.7998 12.2356 4.7998 14V56C4.7998 57.7644 6.23561 59.2002 8 59.2002H28.0801C28.5218 59.2002 28.8799 59.5583 28.8799 60C28.8799 60.4417 28.5218 60.7998 28.0801 60.7998H8C5.35329 60.7998 3.2002 58.6467 3.2002 56V14C3.2002 11.3533 5.35329 9.2002 8 9.2002H9.2002V8C9.2002 5.35329 11.3533 3.2002 14 3.2002H38ZM38.7998 11C38.7998 11.1081 38.8919 11.2002 39 11.2002H45.7197L38.7998 5.66406V11Z" fill="#363B49" stroke="#363B49" stroke-width="0.1"/>
<path d="M10 28.96C10.4417 28.96 10.7998 29.3181 10.7998 29.7598V50.0001C10.7998 51.7644 12.2356 53.2003 14 53.2003H27C27.4417 53.2003 27.7998 53.5583 27.7998 54.0001C27.7998 54.4418 27.4417 54.7999 27 54.7999H14C11.3533 54.7999 9.20021 52.6468 9.2002 50.0001V29.7598C9.2002 29.3181 9.55829 28.96 10 28.96Z" fill="#363B49" stroke="#363B49" stroke-width="0.1"/>
<path d="M27 36.25H16C15.5859 36.25 15.25 36.5859 15.25 37C15.25 37.4141 15.5859 37.75 16 37.75H27C27.4141 37.75 27.75 37.4141 27.75 37C27.75 36.5859 27.4141 36.25 27 36.25Z" fill="#363B49"/>
<path d="M27 42.25H16C15.5859 42.25 15.25 42.5859 15.25 43C15.25 43.4141 15.5859 43.75 16 43.75H27C27.4141 43.75 27.75 43.4141 27.75 43C27.75 42.5859 27.4141 42.25 27 42.25Z" fill="#363B49"/>
<path d="M27 16.25H16C15.5859 16.25 15.25 16.5859 15.25 17C15.25 17.4141 15.5859 17.75 16 17.75H27C27.4141 17.75 27.75 17.4141 27.75 17C27.75 16.5859 27.4141 16.25 27 16.25Z" fill="#363B49"/>
<path d="M27 22.25H16C15.5859 22.25 15.25 22.5859 15.25 23C15.25 23.4141 15.5859 23.75 16 23.75H27C27.4141 23.75 27.75 23.4141 27.75 23C27.75 22.5859 27.4141 22.25 27 22.25Z" fill="#363B49"/>
<path d="M55 24.25H35C32.3809 24.25 30.25 26.3809 30.25 29V56C30.25 58.6191 32.3809 60.75 35 60.75H55C57.6191 60.75 59.75 58.6191 59.75 56V43.7188C59.75 43.3047 59.4141 42.9688 59 42.9688C58.5859 42.9688 58.25 43.3047 58.25 43.7188V56C58.25 57.792 56.792 59.25 55 59.25H35C33.208 59.25 31.75 57.792 31.75 56V29C31.75 27.208 33.208 25.75 35 25.75H55C56.792 25.75 58.25 27.208 58.25 29V36.3921C58.25 36.8062 58.5859 37.1421 59 37.1421C59.4141 37.1421 59.75 36.8062 59.75 36.3921V29C59.75 26.3809 57.6191 24.25 55 24.25Z" fill="#00A2DE"/>
<path d="M59 38.4414C58.5859 38.4414 58.25 38.7773 58.25 39.1914V40.6948C58.25 41.1089 58.5859 41.4448 59 41.4448C59.4141 41.4448 59.75 41.1089 59.75 40.6948V39.1914C59.75 38.7773 59.4141 38.4414 59 38.4414Z" fill="#00A2DE"/>
<path d="M55.75 33C55.75 31.4834 54.5166 30.25 53 30.25H37C35.4834 30.25 34.25 31.4834 34.25 33V37C34.25 38.5166 35.4834 39.75 37 39.75H53C54.5166 39.75 55.75 38.5166 55.75 37V33ZM54.25 37C54.25 37.6895 53.6895 38.25 53 38.25H37C36.3105 38.25 35.75 37.6895 35.75 37V33C35.75 32.3105 36.3105 31.75 37 31.75H53C53.6895 31.75 54.25 32.3105 54.25 33V37Z" fill="#00A2DE"/>
<path d="M37 42.25C35.4834 42.25 34.25 43.4834 34.25 45C34.25 46.5166 35.4834 47.75 37 47.75C38.5166 47.75 39.75 46.5166 39.75 45C39.75 43.4834 38.5166 42.25 37 42.25ZM37 46.25C36.3105 46.25 35.75 45.6895 35.75 45C35.75 44.3105 36.3105 43.75 37 43.75C37.6895 43.75 38.25 44.3105 38.25 45C38.25 45.6895 37.6895 46.25 37 46.25Z" fill="#00A2DE"/>
<path d="M53 42.25C51.4834 42.25 50.25 43.4834 50.25 45C50.25 46.5166 51.4834 47.75 53 47.75C54.5166 47.75 55.75 46.5166 55.75 45C55.75 43.4834 54.5166 42.25 53 42.25ZM53 46.25C52.3105 46.25 51.75 45.6895 51.75 45C51.75 44.3105 52.3105 43.75 53 43.75C53.6895 43.75 54.25 44.3105 54.25 45C54.25 45.6895 53.6895 46.25 53 46.25Z" fill="#00A2DE"/>
<path d="M45 42.25C43.4834 42.25 42.25 43.4834 42.25 45C42.25 46.5166 43.4834 47.75 45 47.75C46.5166 47.75 47.75 46.5166 47.75 45C47.75 43.4834 46.5166 42.25 45 42.25ZM45 46.25C44.3105 46.25 43.75 45.6895 43.75 45C43.75 44.3105 44.3105 43.75 45 43.75C45.6895 43.75 46.25 44.3105 46.25 45C46.25 45.6895 45.6895 46.25 45 46.25Z" fill="#00A2DE"/>
<path d="M37 50.25C35.4834 50.25 34.25 51.4834 34.25 53C34.25 54.5166 35.4834 55.75 37 55.75C38.5166 55.75 39.75 54.5166 39.75 53C39.75 51.4834 38.5166 50.25 37 50.25ZM37 54.25C36.3105 54.25 35.75 53.6895 35.75 53C35.75 52.3105 36.3105 51.75 37 51.75C37.6895 51.75 38.25 52.3105 38.25 53C38.25 53.6895 37.6895 54.25 37 54.25Z" fill="#00A2DE"/>
<path d="M53 50.25C51.4834 50.25 50.25 51.4834 50.25 53C50.25 54.5166 51.4834 55.75 53 55.75C54.5166 55.75 55.75 54.5166 55.75 53C55.75 51.4834 54.5166 50.25 53 50.25ZM53 54.25C52.3105 54.25 51.75 53.6895 51.75 53C51.75 52.3105 52.3105 51.75 53 51.75C53.6895 51.75 54.25 52.3105 54.25 53C54.25 53.6895 53.6895 54.25 53 54.25Z" fill="#00A2DE"/>
<path d="M45 50.25C43.4834 50.25 42.25 51.4834 42.25 53C42.25 54.5166 43.4834 55.75 45 55.75C46.5166 55.75 47.75 54.5166 47.75 53C47.75 51.4834 46.5166 50.25 45 50.25ZM45 54.25C44.3105 54.25 43.75 53.6895 43.75 53C43.75 52.3105 44.3105 51.75 45 51.75C45.6895 51.75 46.25 52.3105 46.25 53C46.25 53.6895 45.6895 54.25 45 54.25Z" fill="#00A2DE"/>
</svg>
