<svg width="49" height="49" viewBox="0 0 49 49" fill="none" xmlns="http://www.w3.org/2000/svg">
<path d="M11 29.5498C14.1449 29.5498 17.0095 31.297 18.4658 34.0498H19.957C20.4816 34.0498 20.9072 34.4754 20.9072 35C20.9072 35.5246 20.4816 35.9502 19.957 35.9502H17.8711C17.5407 35.95 17.2381 35.7785 17.0664 35.5039L17.001 35.3809C15.9568 32.9929 13.6014 31.4502 11 31.4502C7.38866 31.4502 4.4502 34.3887 4.4502 38C4.4502 41.6113 7.38866 44.5498 11 44.5498C13.6014 44.5498 15.9568 43.0071 17.001 40.6191L17.0664 40.4961C17.2381 40.2215 17.5407 40.05 17.8711 40.0498H21.4814L23.4531 38.0781C23.8242 37.7071 24.4258 37.7071 24.7969 38.0781L26.375 39.6562L27.9531 38.0781C28.3242 37.7071 28.9258 37.7071 29.2969 38.0781L31.2686 40.0498H32.417L34.9795 38L32.417 35.9502H23.3271C22.8027 35.95 22.3779 35.5245 22.3779 35C22.3779 34.4755 22.8027 34.05 23.3271 34.0498H32.75C32.966 34.0498 33.1751 34.123 33.3438 34.2578L37.0938 37.2578L37.1738 37.3301C37.35 37.5071 37.4502 37.7478 37.4502 38C37.4502 38.2522 37.35 38.4929 37.1738 38.6699L37.0938 38.7422L33.3438 41.7422C33.1751 41.877 32.966 41.9502 32.75 41.9502H30.875C30.6227 41.9502 30.3812 41.8499 30.2031 41.6719L28.625 40.0938L27.0469 41.6719C26.699 42.0197 26.1486 42.0415 25.7754 41.7373L25.7031 41.6719L24.125 40.0938L22.5469 41.6719C22.3688 41.85 22.1269 41.9502 21.875 41.9502H18.4658C17.0094 44.703 14.1449 46.4502 11 46.4502C6.34049 46.4502 2.5498 42.6595 2.5498 38C2.5498 33.3405 6.34049 29.5498 11 29.5498Z" fill="#00A2DE" stroke="#00A2DE" stroke-width="0.4"/>
<path d="M11 34.0498C13.1781 34.0498 14.9502 35.8219 14.9502 38C14.9502 40.1781 13.1781 41.9502 11 41.9502C8.82194 41.9502 7.0498 40.1781 7.0498 38C7.0498 35.8219 8.82194 34.0498 11 34.0498ZM11 35.9502C9.86973 35.9502 8.9502 36.8697 8.9502 38C8.9502 39.1303 9.86973 40.0498 11 40.0498C12.1303 40.0498 13.0498 39.1303 13.0498 38C13.0498 36.8697 12.1303 35.9502 11 35.9502Z" fill="#00A2DE" stroke="#00A2DE" stroke-width="0.4"/>
<path d="M38 2.5498C39.3512 2.5498 40.4502 3.64882 40.4502 5V11.5537C42.5356 11.6583 44.2002 13.3891 44.2002 15.5V22.4424C45.5271 23.079 46.4502 24.4306 46.4502 26V28.0176C46.4501 28.542 46.025 28.9678 45.5 28.9678C44.975 28.9678 44.5499 28.542 44.5498 28.0176V26C44.5498 24.8697 43.6303 23.9502 42.5 23.9502H29.623C29.0497 23.9502 28.5055 23.7536 28.0674 23.3936L27.8857 23.2295L25.7705 21.1143C25.664 21.0078 25.5248 20.9502 25.377 20.9502H12.5C11.3697 20.9502 10.4502 21.8697 10.4502 23V27.6055C10.45 28.1299 10.0245 28.5547 9.5 28.5547C8.97552 28.5547 8.55002 28.1299 8.5498 27.6055V23C8.5498 21.4305 9.47289 20.0789 10.7998 19.4424V15.5C10.7998 13.3891 12.4644 11.6583 14.5498 11.5537V5C14.5498 3.64882 15.6488 2.5498 17 2.5498H38ZM17 4.4502C16.697 4.4502 16.4502 4.69698 16.4502 5V19.0498H25.377C26.0323 19.0498 26.6499 19.3062 27.1143 19.7705L29.2295 21.8857L29.3145 21.9561C29.4055 22.0174 29.512 22.0498 29.623 22.0498H38.5498V5C38.5498 4.69692 38.3033 4.4502 38 4.4502H17ZM40.4502 22.0498H42.2998V15.5C42.2998 14.4373 41.4869 13.5609 40.4502 13.46V22.0498ZM14.5498 13.46C13.5131 13.5609 12.7002 14.4373 12.7002 15.5V19.0498H14.5498V13.46Z" fill="#363B49" stroke="#363B49" stroke-width="0.4"/>
<path d="M45.5 29.7903C45.0855 29.7903 44.75 30.1261 44.75 30.5403V31.5316C44.75 31.9458 45.0855 32.2816 45.5 32.2816C45.9145 32.2816 46.25 31.9458 46.25 31.5316V30.5403C46.25 30.1261 45.9145 29.7903 45.5 29.7903Z" fill="#363B49"/>
<path d="M45.5002 33.1348C46.0252 33.1349 46.4504 33.5605 46.4504 34.085V42.5C46.4504 44.678 44.6782 46.4501 42.5002 46.4502H18.3499C17.8252 46.4502 17.3997 46.0246 17.3997 45.5C17.3997 44.9754 17.8253 44.5498 18.3499 44.5498H42.5002C43.6304 44.5497 44.55 43.6302 44.55 42.5V34.085C44.55 33.5604 44.9752 33.1348 45.5002 33.1348Z" fill="#363B49" stroke="#363B49" stroke-width="0.4"/>
<path d="M35 8.5498C35.525 8.5498 35.9502 8.97546 35.9502 9.5C35.9502 10.0245 35.525 10.4502 35 10.4502H20C19.4754 10.4502 19.0498 10.0246 19.0498 9.5C19.0498 8.97539 19.4754 8.5498 20 8.5498H35Z" fill="#363B49" stroke="#363B49" stroke-width="0.4"/>
<path d="M35 13.0498C35.525 13.0498 35.9502 13.4755 35.9502 14C35.9502 14.5245 35.525 14.9502 35 14.9502H20C19.4754 14.9502 19.0498 14.5246 19.0498 14C19.0498 13.4754 19.4754 13.0498 20 13.0498H35Z" fill="#363B49" stroke="#363B49" stroke-width="0.4"/>
</svg>
