<svg width="48" height="48" viewBox="0 0 48 48" fill="none" xmlns="http://www.w3.org/2000/svg">
<path d="M11.25 2.2373C16.2193 2.2373 20.2627 6.28029 20.2627 11.25C20.2627 16.2197 16.2193 20.2627 11.25 20.2627C6.28067 20.2627 2.2373 16.2197 2.2373 11.25C2.2373 6.28029 6.28067 2.2373 11.25 2.2373ZM11.25 13.5127C9.04488 13.5127 6.93442 14.2019 5.09668 15.499C6.44969 17.4528 8.70043 18.7373 11.25 18.7373C13.7994 18.7373 16.0494 17.4525 17.4023 15.499C15.5648 14.2022 13.4549 13.5127 11.25 13.5127ZM11.25 3.7627C7.12124 3.7627 3.7627 7.12153 3.7627 11.25C3.7627 12.2825 3.98019 13.2631 4.36133 14.1592C5.64466 13.278 7.04483 12.6558 8.5166 12.3115C7.88422 11.6417 7.4873 10.7458 7.4873 9.75C7.4873 7.67522 9.17522 5.9873 11.25 5.9873C13.3248 5.9873 15.0127 7.67522 15.0127 9.75C15.0127 10.7451 14.6159 11.6399 13.9844 12.3096C15.4562 12.6523 16.8564 13.2731 18.1396 14.1533C18.5194 13.2586 18.7373 12.2804 18.7373 11.25C18.7373 7.12153 15.3788 3.7627 11.25 3.7627ZM11.25 7.5127C10.0165 7.5127 9.0127 8.51646 9.0127 9.75C9.0127 10.9835 10.0165 11.9873 11.25 11.9873C12.4835 11.9873 13.4873 10.9835 13.4873 9.75C13.4873 8.51646 12.4835 7.5127 11.25 7.5127Z" fill="#00A2DE" stroke="#00A2DE" stroke-width="0.4"/>
<path d="M36.75 27.7373C39.6446 27.7373 42.3819 29.1426 44.0732 31.4961L44.1152 31.5615C44.3077 31.8964 44.2198 32.33 43.8984 32.5605L43.8975 32.5596C43.5765 32.7902 43.1389 32.737 42.8828 32.4473L42.834 32.3857C41.4293 30.4301 39.1545 29.2627 36.75 29.2627C32.6212 29.2627 29.2627 32.6215 29.2627 36.75C29.2627 37.7803 29.4797 38.7587 29.8594 39.6533C31.1426 38.773 32.5429 38.1524 34.0146 37.8096C33.3834 37.14 32.9873 36.2448 32.9873 35.25C32.9873 33.1752 34.6752 31.4873 36.75 31.4873C38.8248 31.4873 40.5127 33.1752 40.5127 35.25C40.5127 36.2451 40.1159 37.1399 39.4844 37.8096C40.9562 38.1523 42.3564 38.7731 43.6396 39.6533C44.0194 38.7586 44.2373 37.7804 44.2373 36.75C44.2373 36.3037 44.1984 35.8586 44.1201 35.4219L44.0283 34.9873C43.9361 34.6034 44.1523 34.2179 44.5166 34.0898L44.5908 34.0674C44.9957 33.967 45.4126 34.2208 45.5117 34.6299L45.5703 34.8906C45.6978 35.4998 45.7627 36.124 45.7627 36.75C45.7627 41.7197 41.7193 45.7627 36.75 45.7627C31.7807 45.7627 27.7373 41.7197 27.7373 36.75C27.7373 31.7803 31.7807 27.7373 36.75 27.7373ZM36.75 39.0127C34.5449 39.0127 32.4344 39.7019 30.5967 40.999C31.9497 42.9528 34.2004 44.2373 36.75 44.2373C39.2994 44.2373 41.5494 42.9525 42.9023 40.999C41.0648 39.7022 38.9549 39.0127 36.75 39.0127ZM36.75 33.0127C35.5165 33.0127 34.5127 34.0165 34.5127 35.25C34.5127 36.4835 35.5165 37.4873 36.75 37.4873C37.9835 37.4873 38.9873 36.4835 38.9873 35.25C38.9873 34.0165 37.9835 33.0127 36.75 33.0127Z" fill="#00A2DE" stroke="#00A2DE" stroke-width="0.4"/>
<path d="M7.35416 28.2986C7.71109 28.2274 8.06459 28.4194 8.20377 28.7517L8.23013 28.825V28.8259L8.34927 29.199C8.39031 29.3229 8.4324 29.4463 8.47623 29.5691L8.49869 29.6433C8.58568 29.994 8.4122 30.3585 8.08658 30.5134L8.01529 30.5437C7.9303 30.5742 7.84337 30.5876 7.75845 30.5876C7.48431 30.5876 7.22543 30.4392 7.09048 30.1931L7.04068 30.0818C6.99296 29.9479 6.94699 29.8129 6.90201 29.6775L6.77115 29.2693C6.64909 28.8669 6.87606 28.4409 7.27798 28.3181L7.35416 28.2986Z" fill="#363B49" stroke="#363B49" stroke-width="0.4"/>
<path d="M6.30273 20.6509C6.41043 20.2806 6.78189 20.0427 7.17285 20.1147L7.24902 20.1333C7.59497 20.2342 7.82398 20.5657 7.79492 20.9253L7.78418 21.0034C7.60403 21.9863 7.5127 22.9951 7.5127 24.0005C7.51271 24.9613 7.59703 25.926 7.7627 26.8677L7.77246 26.9448C7.80116 27.3303 7.53357 27.6825 7.14551 27.7515H7.14453C7.09943 27.7593 7.05507 27.7632 7.01172 27.7632C6.64877 27.7632 6.32675 27.5034 6.26172 27.1333L6.19727 26.7456C6.05766 25.8401 5.98732 24.9186 5.9873 24.0005C5.9873 22.903 6.08742 21.8015 6.28516 20.7271L6.30273 20.6509Z" fill="#363B49" stroke="#363B49" stroke-width="0.4"/>
<path d="M23.9999 5.9873C28.6921 5.9873 32.9672 7.79543 36.1757 10.7451L39.9608 6.96094L40.077 6.86621C40.2013 6.78327 40.3479 6.73733 40.4999 6.7373H44.9999C45.4209 6.7373 45.7625 7.079 45.7626 7.5C45.7626 7.92103 45.4209 8.2627 44.9999 8.2627H40.8153L37.2538 11.8232C40.2041 15.0318 42.0126 19.3072 42.0126 24C42.0126 24.9603 41.9357 25.9235 41.7841 26.8691L41.7147 27.2734C41.647 27.6409 41.3262 27.8975 40.9657 27.8975C40.9207 27.8975 40.8744 27.8941 40.828 27.8857L40.827 27.8848C40.4131 27.8083 40.1392 27.4116 40.2157 26.9971L40.3114 26.3945C40.3856 25.856 40.4284 25.3105 40.452 24.7627H24.3153L12.8866 36.1904C15.8699 38.9162 19.799 40.4873 23.9999 40.4873C25.0059 40.4873 26.0143 40.3957 26.9969 40.2148L27.0741 40.2051C27.4609 40.1733 27.8131 40.4397 27.8846 40.8271L27.8944 40.9043C27.9238 41.264 27.6948 41.5964 27.3485 41.6973L27.2723 41.7148C26.1991 41.9123 25.098 42.0127 23.9999 42.0127C17.4208 42.0127 11.4467 38.4867 8.26062 32.7686L7.96179 32.208C7.76927 31.8332 7.91681 31.3739 8.29187 31.1816L8.36316 31.1494C8.72278 31.0088 9.13739 31.1612 9.31726 31.5117H9.31824C9.99875 32.8384 10.8404 34.0432 11.8104 35.1104L23.2372 23.6846V7.54785C22.6895 7.57137 22.1444 7.61418 21.6063 7.68848L21.0028 7.78516C20.6152 7.8561 20.2413 7.62002 20.1337 7.24902L20.1151 7.17285C20.0388 6.75834 20.3137 6.36156 20.7274 6.28516L21.1307 6.21582C22.0756 6.06439 23.0389 5.98731 23.9999 5.9873ZM24.7626 23.2373H40.4637C40.2818 19.2656 38.6905 15.6578 36.1757 12.9014L30.5389 18.5391C30.3901 18.6878 30.1951 18.7627 29.9999 18.7627C29.8291 18.7627 29.6581 18.7057 29.5184 18.5918L29.4608 18.5391C29.163 18.2413 29.1631 17.7588 29.4608 17.4609L35.0975 11.8232C32.3412 9.30897 28.7338 7.71707 24.7626 7.53516V23.2373Z" fill="#363B49" stroke="#363B49" stroke-width="0.4"/>
<path d="M45 11.2373C45.421 11.2373 45.7627 11.579 45.7627 12C45.7627 12.421 45.421 12.7627 45 12.7627H42C41.579 12.7627 41.2373 12.421 41.2373 12C41.2373 11.579 41.579 11.2373 42 11.2373H45Z" fill="#363B49" stroke="#363B49" stroke-width="0.4"/>
<path d="M45 15.7373C45.421 15.7373 45.7627 16.079 45.7627 16.5C45.7627 16.921 45.421 17.2627 45 17.2627H43.5C43.079 17.2627 42.7373 16.921 42.7373 16.5C42.7373 16.079 43.079 15.7373 43.5 15.7373H45Z" fill="#363B49" stroke="#363B49" stroke-width="0.4"/>
</svg>
