<svg width="49" height="49" viewBox="0 0 49 49" fill="none" xmlns="http://www.w3.org/2000/svg">
<path d="M24.5 2.5498C36.6035 2.5498 46.4502 12.3965 46.4502 24.5C46.4502 26.585 46.1583 28.6438 45.583 30.627L45.4648 31.0225C45.3183 31.4928 44.8414 31.768 44.3691 31.6719L44.2754 31.6475C43.7744 31.4916 43.495 30.9589 43.6504 30.458L43.8604 29.7344C44.3184 28.036 44.5498 26.2787 44.5498 24.5C44.5498 13.4447 35.5553 4.45024 24.5 4.4502C13.4447 4.4502 4.4502 13.4447 4.4502 24.5C4.4502 35.5553 13.4447 44.5498 24.5 44.5498C31.9993 44.5498 38.8147 40.4163 42.2871 33.7617H42.2881L42.3369 33.6777C42.602 33.2758 43.1342 33.1307 43.5693 33.3584L43.6533 33.4082C44.0283 33.6555 44.1791 34.1346 44.0127 34.5518L43.9727 34.6406C40.1717 41.9249 32.7096 46.4502 24.5 46.4502C12.3965 46.4502 2.5498 36.6035 2.5498 24.5C2.5498 12.3965 12.3965 2.5498 24.5 2.5498Z" fill="#363B49" stroke="#363B49" stroke-width="0.4"/>
<path d="M24.5 7.0498C34.122 7.0498 41.9502 14.878 41.9502 24.5C41.9502 34.122 34.122 41.9502 24.5 41.9502C14.878 41.9502 7.0498 34.122 7.0498 24.5C7.0498 21.0415 8.0644 17.6959 9.9834 14.8252L10.041 14.7471C10.3477 14.3761 10.8928 14.2913 11.3008 14.5635L11.3789 14.6211C11.7259 14.9075 11.824 15.4009 11.6133 15.7979L11.5635 15.8809C9.85369 18.4381 8.9502 21.4183 8.9502 24.5C8.95024 33.0742 15.9258 40.0498 24.5 40.0498C33.0742 40.0498 40.0498 33.0742 40.0498 24.5C40.0498 15.9258 33.0742 8.9502 24.5 8.9502C21.3597 8.9502 18.3327 9.88549 15.7451 11.6553L15.7441 11.6543C15.3385 11.9333 14.7932 11.8523 14.4834 11.4844L14.4248 11.4072C14.1285 10.9744 14.2396 10.3829 14.6729 10.0869L15.2227 9.72559C18.0024 7.97302 21.1962 7.0498 24.5 7.0498Z" fill="#00A2DE" stroke="#00A2DE" stroke-width="0.4"/>
<path d="M12.5106 13.9254C12.3257 13.9254 12.1404 13.8573 11.9954 13.7203C11.6943 13.4358 11.6812 12.9612 11.9657 12.6601C12.1839 12.429 12.4092 12.2038 12.6399 11.9848C12.9405 11.6999 13.4155 11.7123 13.7001 12.013C13.985 12.3133 13.9725 12.7879 13.6719 13.0732C13.461 13.2732 13.2555 13.4793 13.0555 13.6906C12.9079 13.8466 12.7095 13.9254 12.5106 13.9254Z" fill="#00A2DE"/>
<path d="M24.4998 13.655C25.1332 13.655 25.703 14.0091 25.9832 14.5769L28.3933 19.4607L33.783 20.2449L33.8992 20.2654C34.4727 20.39 34.9344 20.8049 35.1179 21.3699L35.1511 21.4832C35.2934 22.0527 35.1244 22.6495 34.699 23.0642L34.7 23.0652L30.7996 26.866L31.7205 32.2351L31.7371 32.3523C31.7915 32.8976 31.5749 33.4279 31.155 33.78L31.0623 33.8533C30.5818 34.2017 29.9648 34.266 29.4265 34.0291L29.3201 33.9783L24.4998 31.4441L19.6794 33.9783C19.436 34.1062 19.1713 34.1697 18.908 34.1697C18.6089 34.1696 18.3119 34.0876 18.0486 33.9265L17.9382 33.8533C17.4255 33.4808 17.1722 32.8598 17.2791 32.2351L18.199 26.866L14.3005 23.0652C13.8469 22.6228 13.6855 21.9726 13.8816 21.3699L13.9226 21.2595C14.1424 20.715 14.6295 20.3303 15.2175 20.2449L20.6062 19.4607L23.0164 14.5769L23.072 14.4734C23.368 13.9662 23.9058 13.6551 24.4998 13.655ZM22.0896 20.7488V20.7498C21.9683 20.9951 21.7484 21.1746 21.488 21.2458L21.3738 21.2693L15.9832 22.0525L19.8845 25.8552L19.9626 25.9412C20.1071 26.1217 20.1804 26.349 20.1697 26.5798L20.158 26.696L19.2361 32.0652L24.0574 29.53L24.1638 29.4822C24.4163 29.3865 24.7001 29.4025 24.9421 29.53L29.7634 32.0652L28.8425 26.696C28.7901 26.3884 28.8917 26.0736 29.115 25.8552H29.116L33.0164 22.0525L27.6257 21.2693C27.3551 21.2299 27.1167 21.0767 26.9685 20.8513L26.9109 20.7498L24.4861 15.8376L22.0896 20.7488Z" fill="#00A2DE" stroke="#00A2DE" stroke-width="0.4"/>
</svg>
