<svg width="48" height="48" viewBox="0 0 48 48" fill="none" xmlns="http://www.w3.org/2000/svg">
<path d="M24.0007 24.7373C25.869 24.7373 27.3884 26.2571 27.3884 28.125C27.3884 29.9929 25.869 31.5127 24.0007 31.5127C22.1324 31.5127 20.613 29.9929 20.613 28.125C20.613 26.2571 22.1324 24.7373 24.0007 24.7373ZM24.0007 26.2627C22.9737 26.2627 22.1384 27.098 22.1384 28.125C22.1384 29.152 22.9737 29.9873 24.0007 29.9873C25.0277 29.9873 25.863 29.152 25.863 28.125C25.863 27.098 25.0277 26.2627 24.0007 26.2627Z" fill="#00A2DE" stroke="#00A2DE" stroke-width="0.4"/>
<path d="M24.001 2.2373C26.696 2.23744 28.8887 4.42991 28.8887 7.125C28.8887 8.54449 28.2761 9.81938 27.3076 10.7119C30.5789 11.5234 33.0127 14.4805 33.0127 18C33.0127 18.421 32.671 18.7627 32.25 18.7627H15.75C15.329 18.7627 14.9873 18.421 14.9873 18C14.9873 14.4802 17.4216 11.523 20.6934 10.7119C19.725 9.81939 19.1133 8.54438 19.1133 7.125C19.1133 4.42983 21.3058 2.2373 24.001 2.2373ZM22.5 12.0127C19.4567 12.0127 16.9381 14.2946 16.5625 17.2373H31.4375C31.0619 14.2946 28.5433 12.0127 25.5 12.0127H22.5ZM24.001 3.7627C22.1471 3.7627 20.6387 5.2711 20.6387 7.125C20.6387 8.9789 22.1471 10.4873 24.001 10.4873C25.8548 10.4872 27.3633 8.97882 27.3633 7.125C27.3633 5.27118 25.8548 3.76283 24.001 3.7627Z" fill="#363B49" stroke="#363B49" stroke-width="0.4"/>
<path d="M16.6533 6.73535C17.0208 6.61921 17.4256 6.79794 17.582 7.16113L17.6094 7.23438C17.7179 7.57798 17.5693 7.95237 17.2539 8.12793L17.1846 8.16309C10.8535 10.8945 6.76275 17.1106 6.7627 24C6.7627 25.5318 6.96504 27.0468 7.36523 28.501L7.38184 28.5771C7.44144 28.9326 7.24268 29.2828 6.90625 29.4131L6.83203 29.4375C6.76358 29.4563 6.69607 29.4648 6.62988 29.4648C6.33673 29.4648 6.06542 29.2956 5.93945 29.0264L5.89453 28.9053V28.9043C5.45913 27.3181 5.2373 25.6681 5.2373 24C5.23736 16.5015 9.68967 9.73537 16.5801 6.7627L16.6533 6.73535Z" fill="#363B49" stroke="#363B49" stroke-width="0.4"/>
<path d="M30.4175 7.16064C30.5836 6.77315 31.0334 6.59676 31.4185 6.76318L31.4194 6.76221C38.31 9.73484 42.7622 16.5019 42.7622 24.0005C42.7622 25.4551 42.5956 26.9011 42.2651 28.3081L42.1138 28.9087C42.0222 29.2492 41.7136 29.4722 41.3774 29.4722C41.3448 29.4722 41.3118 29.4706 41.2788 29.4663L41.1792 29.4458C40.7722 29.3361 40.5319 28.9179 40.6421 28.5112L40.7808 27.9595C41.0839 26.6666 41.2378 25.3376 41.2378 24.0005C41.2378 17.3264 37.3986 11.2837 31.4028 8.4292L30.8159 8.1626C30.4287 7.99576 30.2507 7.54689 30.4175 7.16064Z" fill="#363B49" stroke="#363B49" stroke-width="0.4"/>
<path d="M22.0779 41.1238L22.0769 41.1248C23.2924 41.2768 24.6953 41.2773 25.9148 41.1238L25.9167 41.1228L25.9949 41.1179C26.3822 41.112 26.7169 41.392 26.7664 41.7849L26.7722 41.863C26.7807 42.224 26.5324 42.5421 26.1814 42.6228L26.1052 42.6365C25.4283 42.7215 24.739 42.7625 23.9998 42.7625C23.4497 42.7624 22.9124 42.7384 22.3962 42.6912L21.8875 42.6365C21.4698 42.5842 21.1727 42.203 21.2253 41.7849L21.239 41.7078C21.3262 41.3313 21.6888 41.0733 22.0779 41.1238Z" fill="#363B49" stroke="#363B49" stroke-width="0.4"/>
<path d="M36.751 29.2373C39.446 29.2374 41.6387 31.4299 41.6387 34.125C41.6387 35.5445 41.0261 36.8194 40.0576 37.7119C43.3289 38.5234 45.7627 41.4805 45.7627 45C45.7627 45.421 45.421 45.7627 45 45.7627H28.5C28.079 45.7627 27.7373 45.421 27.7373 45C27.7373 42.9936 28.5186 41.1058 29.9375 39.6865L30.1436 39.4893C31.086 38.615 32.2164 38.01 33.4404 37.709C32.4739 36.8166 31.8633 35.5429 31.8633 34.125C31.8633 31.4298 34.0558 29.2373 36.751 29.2373ZM35.249 39.0127C33.7503 39.0127 32.3357 39.5597 31.2324 40.5596L31.0156 40.7656C30.0663 41.7158 29.4759 42.9269 29.3105 44.2363H44.1865C43.8104 41.2945 41.2922 39.0127 38.25 39.0127H35.249ZM36.751 30.7627C34.8971 30.7627 33.3887 32.2711 33.3887 34.125C33.3887 35.9789 34.8971 37.4873 36.751 37.4873C38.6048 37.4872 40.1133 35.9788 40.1133 34.125C40.1133 32.2712 38.6048 30.7628 36.751 30.7627Z" fill="#363B49" stroke="#363B49" stroke-width="0.4"/>
<path d="M11.251 29.2373C13.946 29.2374 16.1387 31.4299 16.1387 34.125C16.1387 35.5445 15.5261 36.8194 14.5576 37.7119C17.8289 38.5234 20.2627 41.4805 20.2627 45C20.2627 45.421 19.921 45.7627 19.5 45.7627H3C2.579 45.7627 2.2373 45.421 2.2373 45C2.2373 41.4802 4.67158 38.523 7.94336 37.7119C6.97501 36.8194 6.36328 35.5444 6.36328 34.125C6.36328 31.4298 8.5558 29.2373 11.251 29.2373ZM9.75 39.0127C6.70672 39.0127 4.18807 41.2946 3.8125 44.2373H18.6875C18.3119 41.2946 15.7933 39.0127 12.75 39.0127H9.75ZM11.251 30.7627C9.39708 30.7627 7.88867 32.2711 7.88867 34.125C7.88867 35.9789 9.39708 37.4873 11.251 37.4873C13.1048 37.4872 14.6133 35.9788 14.6133 34.125C14.6133 32.2712 13.1048 30.7628 11.251 30.7627Z" fill="#363B49" stroke="#363B49" stroke-width="0.4"/>
<path d="M22.8593 20.3201C23.6187 20.208 24.383 20.2081 25.1415 20.3201L25.5204 20.3855L25.622 20.4128C25.8523 20.4926 26.033 20.6791 26.1035 20.9167L26.4697 22.1541C26.9949 22.371 27.4864 22.6539 27.9365 22.9998L29.1923 22.7L29.2968 22.6824C29.5413 22.6583 29.7814 22.7539 29.9443 22.9402H29.9453L30.1904 23.2361C30.7452 23.938 31.1729 24.7225 31.4628 25.572L31.4902 25.6736C31.5297 25.8786 31.4831 26.0914 31.3613 26.2615L31.2939 26.3425L30.4062 27.2781C30.4809 27.8411 30.4808 28.4074 30.4062 28.9705L31.2949 29.9089L31.3622 29.99C31.4835 30.16 31.5298 30.3729 31.4902 30.5779L31.4628 30.6794C31.1315 31.6494 30.6214 32.535 29.9453 33.3103H29.9443C29.7571 33.5239 29.4701 33.6134 29.1943 33.5505H29.1923L27.9355 33.2498C27.4855 33.5955 26.9948 33.8795 26.4697 34.0964L26.1035 35.3337C26.033 35.5712 25.8521 35.757 25.622 35.8367L25.5204 35.864C25.0164 35.9636 24.5083 36.0134 24.0009 36.0134C23.4927 36.0134 22.9852 35.9636 22.4804 35.864V35.865C22.2023 35.8104 21.978 35.6054 21.8974 35.3337L21.5292 34.0955C21.0049 33.8784 20.515 33.5954 20.0654 33.2498L18.8095 33.5505L18.8076 33.5515C18.5639 33.6068 18.3153 33.544 18.1318 33.3845L18.0576 33.3103C17.4672 32.6329 17.0015 31.8703 16.6718 31.0398L16.539 30.6804C16.4467 30.4119 16.5104 30.1141 16.706 29.908L17.5947 28.9705C17.5195 28.4078 17.5195 27.8417 17.5947 27.2791L16.706 26.3425V26.3416C16.511 26.1355 16.4468 25.8383 16.539 25.5701C16.8719 24.5989 17.383 23.7139 18.0576 22.9402L18.1318 22.866C18.3147 22.7063 18.5633 22.6411 18.8095 22.7L20.0644 22.9998C20.5142 22.6539 21.0047 22.3712 21.5292 22.1541L21.8974 20.9167L21.9345 20.8181C22.0352 20.5962 22.2371 20.4333 22.4804 20.3855L22.8593 20.3201ZM24.7773 21.8103C24.2602 21.7462 23.7406 21.7457 23.2226 21.8103L22.8847 22.949C22.8149 23.1857 22.6338 23.3727 22.4023 23.4529H22.4013C21.8689 23.6356 21.3787 23.9039 20.9404 24.2507L20.7558 24.4041C20.5691 24.5665 20.3191 24.6271 20.0781 24.571H20.0771L18.9218 24.2947C18.6074 24.7111 18.346 25.161 18.1425 25.6414L18.9599 26.5027V26.5037L19.0195 26.574C19.1463 26.745 19.1979 26.9638 19.1552 27.1765C19.0316 27.8063 19.0316 28.4442 19.1552 29.074L19.1679 29.1658C19.1818 29.3482 19.1288 29.5296 19.0195 29.6765L18.9599 29.7468L18.1425 30.6082C18.346 31.0882 18.6073 31.5383 18.9218 31.9548L20.0771 31.6794H20.0781L20.1679 31.6638C20.3493 31.6433 20.5313 31.6872 20.6826 31.7898L20.7558 31.8464L20.9404 31.9998C21.3786 32.3465 21.8691 32.6139 22.4013 32.7966L22.4023 32.7976L22.4863 32.8318C22.6773 32.9246 22.8236 33.0941 22.8847 33.3015L23.2216 34.4382C23.7397 34.5029 24.2591 34.5032 24.7763 34.4392L25.1152 33.3015L25.1464 33.2156C25.2309 33.0196 25.3954 32.8666 25.5995 32.7966L25.8251 32.7136C26.3459 32.5068 26.823 32.2155 27.246 31.8464L27.247 31.8455L27.3203 31.7898C27.4974 31.6707 27.7163 31.6321 27.9238 31.6794H27.9257L29.08 31.9558C29.3951 31.539 29.6539 31.088 29.8564 30.6082L29.04 29.7468V29.7458C28.8713 29.567 28.7991 29.3174 28.8456 29.0759V29.075L28.8867 28.8386C28.9564 28.3644 28.9563 27.8861 28.8867 27.4119L28.8456 27.1746C28.7991 26.933 28.8714 26.6829 29.041 26.5037L29.8564 25.6414C29.654 25.1618 29.3944 24.7113 29.08 24.2947L27.9257 24.571H27.9247C27.6831 24.6283 27.4329 24.5652 27.247 24.4041H27.246C26.823 24.0349 26.3459 23.7437 25.8251 23.5369L25.5995 23.4529C25.3665 23.3731 25.185 23.1856 25.1152 22.949L24.7773 21.8103Z" fill="#00A2DE" stroke="#00A2DE" stroke-width="0.4"/>
</svg>
