<svg width="157" height="48" viewBox="0 0 157 48" fill="none" xmlns="http://www.w3.org/2000/svg">
<g clip-path="url(#clip0_10840_28)">
<path d="M4.082 43.2086L2.0707 46.44H7.32383V45.3429H8.50345V46.1914C8.50345 46.6629 8.4101 46.98 8.23189 47.1514C8.06216 47.3143 7.73118 47.4 7.25594 47.4H2.04524L0.220642 47.3657L3.39459 42.3H7.25594C7.73967 42.3 8.06216 42.3857 8.23189 42.5486C8.4101 42.7114 8.50345 43.0371 8.50345 43.5086V44.1857H7.32383V43.2171H4.07351L4.082 43.2086Z" fill="#504F53"/>
<path d="M16.0564 47.4086H14.9956V44.6486C14.9956 44.5629 14.9956 44.46 15.0041 44.3314C15.0041 44.1771 15.0211 44.0143 15.0465 43.8343C14.9362 43.9629 14.7919 44.1086 14.6222 44.2457L10.9136 47.4H10.1074V42.3H11.1682V44.9829C11.1682 45.0943 11.1512 45.3857 11.1173 45.8657C11.27 45.6857 11.4652 45.5057 11.6944 45.3086L15.2502 42.3H16.0564V47.4V47.4086Z" fill="#504F53"/>
<path d="M18.8315 43.2086V46.44H22.4977V45.3429H23.6773V46.1914C23.6773 46.6629 23.5839 46.98 23.4057 47.1514C23.236 47.3143 22.905 47.4 22.4298 47.4H18.9164C18.4326 47.4 18.1102 47.3143 17.9404 47.1514C17.7622 46.98 17.6689 46.6629 17.6689 46.1914V43.5C17.6689 43.0286 17.7622 42.7114 17.9404 42.54C18.1102 42.3771 18.4326 42.2914 18.9164 42.2914H22.4298C22.9135 42.2914 23.236 42.3771 23.4057 42.54C23.5839 42.7114 23.6773 43.0286 23.6773 43.5V44.1771H22.4977V43.2086H18.8315Z" fill="#504F53"/>
<path d="M28.7692 47.4086H27.5981V43.2086H25.2728V42.3H31.103V43.2086H28.7692V47.4086Z" fill="#504F53"/>
<path d="M32.7069 42.3H37.8752V43.1743H33.878V44.3057H36.2118V45.18H33.878V46.4486H37.9261V47.4086H32.7069V42.3Z" fill="#504F53"/>
<path d="M39.5301 42.3H40.4805L42.8568 45.3857L45.1905 42.3H46.1325V47.4H45.0463V44.2457C45.0463 44.1171 45.0632 43.9371 45.0887 43.7057C44.9699 43.9629 44.8765 44.1429 44.7917 44.2371L42.8907 46.7914H42.6531L40.7521 44.2286C40.6163 44.0486 40.5145 43.8686 40.4466 43.7057C40.4636 43.9114 40.4721 44.0914 40.4721 44.2457V47.4H39.5216V42.3H39.5301Z" fill="#504F53"/>
<path d="M50.5879 42.3L51.1141 41.2286L51.7166 42.3L54.619 47.4H53.2951L52.6841 46.2857H49.4847L48.8991 47.4H47.7195L50.5795 42.3H50.5879ZM52.2089 45.3686L51.1226 43.2943L49.9939 45.3686H52.2089Z" fill="#504F53"/>
<path fill-rule="evenodd" clip-rule="evenodd" d="M27.4198 33.4457C27.4198 33.4457 25.5783 34.5343 21.6151 35.3486C23.3463 36.2743 25.3237 36.7971 27.4198 36.7971C29.516 36.7971 31.4934 36.2743 33.2246 35.3486C29.2614 34.5343 27.4198 33.4457 27.4198 33.4457ZM27.4198 38.7943C24.1356 38.7943 21.1144 37.6886 18.6872 35.8286C15.7934 36.1971 12.1357 36.3686 7.6633 36.0514C8.67319 32.2457 10.5148 28.4143 13.0183 25.2343C12.9928 24.9 12.9843 24.5571 12.9843 24.2057C12.9843 20.1771 14.5968 16.5343 17.2106 13.8943C18.2205 12.8743 19.3916 12 20.6646 11.3143C22.939 4.92857 27.4198 0.351425 27.4198 0.351425C27.4198 0.351425 31.8922 4.92857 34.1751 11.3143C35.4565 12 36.6192 12.8743 37.6291 13.8943C40.2429 16.5343 41.8554 20.1771 41.8554 24.2057C41.8554 24.5486 41.8469 24.8914 41.8214 25.2343C44.3249 28.4143 46.1665 32.2457 47.1764 36.0514C42.704 36.36 39.0463 36.1971 36.1524 35.8286C33.7253 37.6886 30.7041 38.7943 27.4198 38.7943ZM27.4198 5.92285C26.3845 7.29428 25.5358 8.61428 24.8399 9.87428C25.6801 9.72 26.5372 9.64285 27.4198 9.64285C28.3024 9.64285 29.1596 9.72 29.9997 9.87428C29.3038 8.61428 28.4552 7.29428 27.4198 5.92285ZM27.4198 11.64C26.1299 11.64 24.8824 11.8371 23.7028 12.2057C22.7438 14.4857 22.311 16.56 22.2431 18.4114C23.8725 17.8714 25.6037 17.6314 27.4198 17.6314C29.2359 17.6314 30.9672 17.8714 32.5966 18.4114C32.5202 16.56 32.0959 14.4857 31.1369 12.2057C29.9658 11.8371 28.7183 11.64 27.4198 11.64ZM27.4198 20.3657C27.4198 20.3657 25.2473 20.2543 22.4552 21.5057C23.4482 26.9743 27.4198 29.8457 27.4198 29.8457C27.4198 29.8457 31.3915 26.9743 32.3844 21.5057C29.5924 20.2457 27.4198 20.3657 27.4198 20.3657ZM39.8186 22.9886C38.4862 21.6771 37.0181 20.5371 35.4311 19.6629C35.5669 17.7943 35.3887 15.9771 35.0152 14.2457C35.4396 14.58 35.8469 14.94 36.2288 15.3257C38.2147 17.3314 39.5301 20.0057 39.8186 22.9886ZM34.8795 22.8857C36.441 23.9143 38.0534 25.3371 39.5046 27.3C38.9445 29.5371 37.7988 31.5343 36.2373 33.12L36.1779 33.18C33.3943 32.8371 31.3321 32.1686 29.7621 31.3714C32.5202 28.5943 34.1157 25.7229 34.888 22.8943L34.8795 22.8857ZM40.8964 29.4514C41.5498 30.6086 42.1524 31.9029 42.6616 33.36C41.2019 33.4286 39.8695 33.4286 38.6475 33.3686C39.5895 32.1943 40.3448 30.8743 40.8964 29.4429V29.4514ZM15.0296 22.9886C16.3619 21.6771 17.8301 20.5371 19.4171 19.6629C19.2813 17.7943 19.4595 15.9771 19.8329 14.2457C19.4086 14.58 19.0012 14.94 18.6194 15.3257C16.6335 17.3314 15.3181 20.0057 15.0296 22.9886ZM19.9687 22.8857C18.4072 23.9143 16.7948 25.3371 15.3436 27.3C15.9037 29.5371 17.0494 31.5343 18.6109 33.12L18.6703 33.18C21.4538 32.8371 23.5161 32.1686 25.0861 31.3714C22.3279 28.5943 20.7325 25.7229 19.9602 22.8943L19.9687 22.8857ZM13.9433 29.4514C13.2898 30.6086 12.6873 31.9029 12.1781 33.36C13.6378 33.4286 14.9702 33.4286 16.1922 33.3686C15.2502 32.1943 14.4949 30.8743 13.9433 29.4429V29.4514Z" fill="#00A2DE"/>
<path d="M72.4067 32.7086V15.0686H83.7956V17.4857H74.9442V21.7371H79.4675C79.6287 21.7371 79.8409 21.7371 80.0955 21.7543C80.3501 21.7629 80.5877 21.7886 80.8168 21.8229C81.7588 21.9343 82.565 22.2514 83.21 22.7571C83.8635 23.2629 84.3557 23.9057 84.6866 24.6771C85.0261 25.4571 85.1874 26.3057 85.1874 27.2229C85.1874 28.14 85.0176 28.9971 84.6866 29.7686C84.3557 30.5486 83.8635 31.1829 83.2185 31.6886C82.565 32.1943 81.7673 32.5029 80.8083 32.6229C80.5792 32.6571 80.3416 32.6743 80.0955 32.6914C79.8409 32.7 79.6372 32.7086 79.4675 32.7086H72.4067ZM74.9357 30.2914H79.3656C79.5269 30.2914 79.7051 30.2914 79.9088 30.2657C80.104 30.2486 80.2907 30.2229 80.4689 30.1886C81.2496 30.0257 81.8097 29.6486 82.1237 29.0657C82.4462 28.4743 82.599 27.8571 82.599 27.2143C82.599 26.5714 82.4377 25.9371 82.1237 25.3543C81.8013 24.7714 81.2496 24.4029 80.4689 24.2314C80.2907 24.1886 80.104 24.1629 79.9088 24.1457C79.7136 24.1371 79.5269 24.1286 79.3656 24.1286H74.9357V30.2743V30.2914ZM94.7347 33.0686C93.4787 33.0686 92.4263 32.76 91.5777 32.1429C90.729 31.5257 90.0841 30.6943 89.6512 29.64C89.2184 28.5857 88.9978 27.4029 88.9978 26.0743C88.9978 24.7457 89.2184 23.5629 89.6512 22.5086C90.0841 21.4543 90.7205 20.6229 91.5692 20.0143C92.4178 19.4057 93.4532 19.1057 94.6922 19.1057C95.9313 19.1057 96.9836 19.4057 97.8747 20.0143C98.7657 20.6229 99.4531 21.4543 99.9369 22.5C100.421 23.5457 100.667 24.7371 100.667 26.0743C100.667 27.4114 100.429 28.5857 99.9454 29.64C99.4616 30.6943 98.7827 31.5343 97.9001 32.1429C97.0175 32.7514 95.9567 33.06 94.7347 33.06V33.0686ZM88.5735 38.58V19.4743H90.8309V28.9886H91.1194V38.58H88.5735ZM94.3782 30.7543C95.1844 30.7543 95.8549 30.5486 96.3895 30.1286C96.9157 29.7086 97.3145 29.1514 97.5776 28.44C97.8407 27.7371 97.968 26.9486 97.968 26.0743C97.968 25.2 97.8407 24.4286 97.5776 23.7257C97.3145 23.0229 96.9072 22.4657 96.3725 22.0457C95.8294 21.6257 95.142 21.42 94.3018 21.42C93.5126 21.42 92.8591 21.6171 92.3415 22.0114C91.8323 22.4057 91.4504 22.9543 91.2043 23.6486C90.9582 24.3514 90.8309 25.1571 90.8309 26.0743C90.8309 26.9914 90.9497 27.7971 91.1958 28.5C91.4419 29.2029 91.8238 29.7514 92.35 30.1543C92.8761 30.5571 93.555 30.7543 94.3867 30.7543H94.3782ZM109.017 33.0686C107.71 33.0686 106.573 32.7686 105.606 32.1771C104.647 31.5771 103.9 30.7543 103.382 29.7086C102.865 28.6629 102.602 27.4543 102.602 26.0829C102.602 24.7114 102.865 23.4857 103.399 22.44C103.934 21.3943 104.681 20.5714 105.64 19.9886C106.599 19.4057 107.727 19.1143 109.009 19.1143C110.29 19.1143 111.453 19.4143 112.42 20.0057C113.379 20.6057 114.126 21.42 114.652 22.4657C115.179 23.5114 115.442 24.7114 115.442 26.0829C115.442 27.4543 115.179 28.6714 114.652 29.7257C114.126 30.7714 113.371 31.5943 112.412 32.1857C111.453 32.7771 110.316 33.0771 109.017 33.0771V33.0686ZM109.017 30.66C110.273 30.66 111.207 30.2314 111.826 29.3743C112.446 28.5171 112.751 27.42 112.751 26.0743C112.751 24.7286 112.437 23.5886 111.818 22.7571C111.19 21.9257 110.256 21.5143 109.017 21.5143C108.169 21.5143 107.473 21.7029 106.921 22.0971C106.37 22.4829 105.962 23.0229 105.699 23.7C105.436 24.3857 105.3 25.1743 105.3 26.0743C105.3 27.4629 105.614 28.5771 106.242 29.4086C106.87 30.24 107.795 30.66 109.017 30.66ZM118.098 32.7086V19.4829H120.678V25.8514L125.821 19.4829H129.046L123.614 26.1L129.606 32.7171H126.16L120.678 26.3486V32.7171H118.098V32.7086ZM136.149 33.0686C134.85 33.0686 133.705 32.7771 132.729 32.2029C131.744 31.6286 130.98 30.8229 130.437 29.7857C129.894 28.7486 129.614 27.5571 129.614 26.1943C129.614 24.7457 129.886 23.4943 130.42 22.4314C130.955 21.3686 131.702 20.5457 132.669 19.9714C133.628 19.3886 134.748 19.1057 136.03 19.1057C137.311 19.1057 138.499 19.4143 139.441 20.04C140.383 20.6657 141.079 21.5571 141.546 22.7057C142.013 23.8543 142.191 25.2257 142.098 26.8114H139.56V25.8771C139.543 24.3429 139.255 23.2029 138.695 22.4743C138.135 21.7371 137.277 21.3686 136.132 21.3686C134.859 21.3686 133.908 21.7714 133.272 22.5771C132.635 23.3829 132.313 24.5571 132.313 26.0829C132.313 27.6086 132.635 28.6629 133.272 29.4514C133.908 30.2486 134.833 30.6514 136.038 30.6514C136.828 30.6514 137.515 30.4714 138.092 30.1029C138.669 29.7429 139.119 29.22 139.441 28.5429L141.928 29.34C141.419 30.5229 140.647 31.44 139.611 32.0914C138.576 32.7429 137.422 33.0686 136.157 33.0686H136.149ZM131.473 26.8114V24.8143H140.825V26.8114H131.473ZM150.949 33.0686C149.693 33.0686 148.641 32.76 147.792 32.1429C146.944 31.5257 146.299 30.6943 145.866 29.64C145.433 28.5857 145.212 27.4029 145.212 26.0743C145.212 24.7457 145.433 23.5629 145.866 22.5086C146.299 21.4543 146.935 20.6229 147.784 20.0143C148.632 19.4057 149.668 19.1057 150.907 19.1057C152.146 19.1057 153.198 19.4057 154.089 20.0143C154.98 20.6229 155.668 21.4543 156.151 22.5C156.635 23.5457 156.881 24.7371 156.881 26.0743C156.881 27.4114 156.644 28.5857 156.16 29.64C155.676 30.6943 154.997 31.5343 154.115 32.1429C153.232 32.7514 152.171 33.06 150.949 33.06V33.0686ZM144.788 38.58V19.4743H147.045V28.9886H147.334V38.58H144.788ZM150.601 30.7543C151.407 30.7543 152.078 30.5486 152.612 30.1286C153.139 29.7086 153.538 29.1514 153.801 28.44C154.064 27.7371 154.191 26.9486 154.191 26.0743C154.191 25.2 154.064 24.4286 153.801 23.7257C153.538 23.0229 153.13 22.4657 152.596 22.0457C152.052 21.6257 151.365 21.42 150.525 21.42C149.736 21.42 149.082 21.6171 148.564 22.0114C148.055 22.4057 147.673 22.9543 147.427 23.6486C147.181 24.3514 147.054 25.1571 147.054 26.0743C147.054 26.9914 147.173 27.7971 147.419 28.5C147.665 29.2029 148.047 29.7514 148.573 30.1543C149.099 30.5571 149.778 30.7543 150.61 30.7543H150.601Z" fill="#805C00"/>
<path fill-rule="evenodd" clip-rule="evenodd" d="M63.9202 47.4086H63.114V0.368576H63.9202V47.4086Z" fill="#96969A"/>
</g>
<defs>
<clipPath id="clip0_10840_28">
<rect width="157" height="48" fill="white"/>
</clipPath>
</defs>
</svg>
